<svg width="160" height="160" viewBox="0 0 160 160" fill="none" xmlns="http://www.w3.org/2000/svg">
<rect width="160" height="160" rx="16" fill="#15360F"/>
<path fill-rule="evenodd" clip-rule="evenodd" d="M51.6801 31.3894C57.0307 38.5676 63.7177 47.5387 64.0665 53.3866C64.4689 60.2148 60.0334 63.0432 56.0002 63.0456C50.5386 63.0456 48.7002 57.4344 48.0322 55.3954L48.0319 55.3947C47.995 55.2821 47.9617 55.1805 47.9316 55.0912C47.9316 54.5222 46.7769 54.5222 46.7769 55.0912C46.2007 56.7959 50.5934 71 51.9647 71H38.1297C39.501 71 43.8937 56.7959 43.3175 55.0912C43.3175 54.5222 42.1652 54.5222 42.1652 55.0912C42.135 55.1806 42.1016 55.2824 42.0647 55.3952L42.0646 55.3954C41.3966 57.4344 39.5582 63.0456 34.0965 63.0456C30.061 63.0456 25.6231 60.2148 26.0255 53.3866C26.3744 47.5362 33.0637 38.5624 38.4148 31.3839C41.9007 26.7074 44.8187 22.7929 45.046 21C45.2733 22.7943 48.1929 26.7111 51.6801 31.3894ZM112.778 30.6583C112.778 30.6583 113.981 21 122.989 21C129.294 21 135 25.3306 135 33.5C135 39.9597 127.851 49.3183 121.625 57.468C117.447 62.9367 113.685 67.8611 112.778 71C111.875 67.8633 108.111 62.937 103.931 57.4655L103.931 57.4652L103.931 57.4652C97.7053 49.3163 90.5556 39.958 90.5556 33.5C90.5556 25.3306 96.2611 21 102.567 21C111.575 21 112.778 30.6583 112.778 30.6583ZM53.45 102.069C48.4095 95.25 45.0476 89 45.0476 89C45.0476 89 41.6857 95.25 36.6452 102.069C31.6048 108.888 26 114 26 114C26 114 31.6024 119.112 36.6452 125.933C41.6881 132.755 45.0476 139 45.0476 139C45.0476 139 48.4095 132.75 53.45 125.933C58.4905 119.117 64.0952 114 64.0952 114C64.0952 114 58.4929 108.886 53.45 102.069ZM121.932 99.7947C121.932 106.726 115.682 111.726 115.682 111.726C122.624 106.318 135 110.011 135 120.818C135 126.226 130.582 132.182 123.637 132.182C115.308 132.182 111.705 123.089 111.705 123.089C111.705 123.089 110.647 133.455 116.818 139H103.182C109.353 133.453 108.295 123.089 108.295 123.089C108.295 123.089 104.692 132.182 96.3632 132.182C89.4211 132.182 85 126.229 85 120.818C85 110.011 97.3763 106.318 104.318 111.726C104.318 111.726 98.0684 106.726 98.0684 99.7947C98.0684 95.7395 101.671 89 110 89C118.329 89 121.932 95.7368 121.932 99.7947Z" fill="black"/>
</svg>
