<svg
    xmlns="http://www.w3.org/2000/svg"
    viewBox="0 0 77 121"
    id="vector">
    <path
        id="path"
        d="M 77.5 116.5 C 77.5 119.26 75.26 121.5 72.5 121.5 L 5 121.5 C 2.24 121.5 0 119.26 0 116.5 L 0 5 C 0 2.24 2.24 0 5 0 L 72.5 0 C 75.26 0 77.5 2.24 77.5 5 L 77.5 116.5 Z"
        fill="none"
        stroke="#000000"
        stroke-width="1.5"/>
    <path
        id="path_1"
        d="M 11.5 14.25 L 11.5 16.5 L 4 16.5 L 4 15.25 C 4 12 11.5 11.5 11.5 7.5 C 11.5 4.75 10.25 4 7.75 4 C 5.25 4 4 5.5 4 7"
        fill="#00000000"
        stroke="#ffffff"
        stroke-width="1"/>
    <path
        id="path_2"
        d="M 66 107.25 L 66 105 L 73.5 105 L 73.5 106.25 C 73.5 109.5 66 110 66 114 C 66 116.75 67.25 117.5 69.75 117.5 C 72.25 117.5 73.5 116 73.5 114.5"
        fill="#00000000"
        stroke="#ffffff"
        stroke-width="1"/>
    <path
        id="path_3"
        d="M 12.24 25.37 C 12.1 23.24 7.88 19.24 7.75 18.24 C 7.61 19.24 3.39 23.24 3.26 25.37 C 3.17 26.87 4.21 27.5 5.17 27.5 C 6.53 27.5 6.94 26.12 7.08 25.75 C 7.08 25.62 7.35 25.62 7.35 25.75 C 7.49 26.13 6.45 29.25 6.12 29.25 L 9.39 29.25 C 9.07 29.25 8.03 26.12 8.16 25.75 C 8.16 25.62 8.43 25.62 8.43 25.75 C 8.57 26.13 8.97 27.5 10.34 27.5 C 11.29 27.5 12.34 26.88 12.25 25.37 Z"
        fill="#ffffff"/>
    <path
        id="path_4"
        d="M 65.26 96.12 C 65.4 98.25 69.62 102.25 69.75 103.25 C 69.89 102.25 74.11 98.25 74.24 96.12 C 74.33 94.62 73.29 93.99 72.33 93.99 C 70.97 93.99 70.56 95.37 70.42 95.74 C 70.42 95.87 70.15 95.87 70.15 95.74 C 70.01 95.36 71.05 92.24 71.38 92.24 L 68.11 92.24 C 68.43 92.24 69.47 95.37 69.34 95.74 C 69.34 95.87 69.07 95.87 69.07 95.74 C 68.93 95.36 68.53 93.99 67.16 93.99 C 66.21 93.99 65.16 94.61 65.25 96.12 Z"
        fill="#ffffff"/>
    <path
        id="path_5"
        d="M 46.74 23.85 C 46.5 19.79 38.99 12.16 38.75 10.25 C 38.51 12.16 31 19.8 30.76 23.85 C 30.59 26.72 32.46 27.91 34.15 27.91 C 36.57 27.91 37.3 25.28 37.54 24.57 C 37.54 24.33 38.02 24.33 38.02 24.57 C 38.26 25.29 36.42 31.25 35.84 31.25 L 41.65 31.25 C 41.07 31.25 39.23 25.28 39.47 24.57 C 39.47 24.33 39.96 24.33 39.96 24.57 C 40.2 25.29 40.93 27.91 43.35 27.91 C 45.04 27.91 46.91 26.72 46.74 23.85 Z"
        fill="#ffffff"/>
    <path
        id="path_6"
        d="M 30.76 97.65 C 31 101.71 38.51 109.34 38.75 111.25 C 38.99 109.34 46.5 101.7 46.74 97.65 C 46.91 94.78 45.04 93.59 43.35 93.59 C 40.93 93.59 40.2 96.22 39.96 96.93 C 39.96 97.17 39.48 97.17 39.48 96.93 C 39.24 96.21 41.08 90.25 41.66 90.25 L 35.85 90.25 C 36.43 90.25 38.27 96.22 38.03 96.93 C 38.03 97.17 37.54 97.17 37.54 96.93 C 37.3 96.21 36.57 93.59 34.15 93.59 C 32.46 93.59 30.59 94.78 30.76 97.65 Z"
        fill="#ffffff"/>
</svg>
