<svg
    xmlns="http://www.w3.org/2000/svg"
    viewBox="0 0 77 121"
    id="vector">
    <path
        id="path"
        d="M 77.5 116.5 C 77.5 119.26 75.26 121.5 72.5 121.5 L 5 121.5 C 2.24 121.5 0 119.26 0 116.5 L 0 5 C 0 2.24 2.24 0 5 0 L 72.5 0 C 75.26 0 77.5 2.24 77.5 5 L 77.5 116.5 Z"
        fill="none"
        stroke="#000000"
        stroke-width="1.5"/>
    <path
        id="path_1"
        d="M 11 7.75 L 11 13.25 C 11 13.25 11.25 16.5 7.77 16.5 C 6.69 16.5 4.97 16 4.75 14.25"
        fill="#00000000"
        stroke="#df0000"
        stroke-width="1"/>
    <path
        id="path_2"
        d="M 11 7.75 C 11 6.888 10.657 6.061 10.048 5.452 C 9.439 4.843 8.612 4.5 7.75 4.5 C 6.888 4.5 6.061 4.843 5.452 5.452 C 4.843 6.061 4.5 6.888 4.5 7.75 C 4.5 8.612 4.843 9.439 5.452 10.048 C 6.061 10.657 6.888 11 7.75 11 C 8.612 11 9.439 10.657 10.048 10.048 C 10.657 9.439 11 8.612 11 7.75"
        fill="#00000000"
        stroke="#df0000"
        stroke-width="1"/>
    <path
        id="path_3"
        d="M 73 113.75 C 73 112.888 72.657 112.061 72.048 111.452 C 71.439 110.843 70.612 110.5 69.75 110.5 C 68.888 110.5 68.061 110.843 67.452 111.452 C 66.843 112.061 66.5 112.888 66.5 113.75 C 66.5 114.612 66.843 115.439 67.452 116.048 C 68.061 116.657 68.888 117 69.75 117 C 70.612 117 71.439 116.657 72.048 116.048 C 72.657 115.439 73 114.612 73 113.75"
        fill="#00000000"
        stroke="#df0000"
        stroke-width="1"/>
    <path
        id="path_4"
        d="M 66.5 113.75 L 66.5 108.25 C 66.5 108.25 66.25 105 69.73 105 C 70.81 105 72.53 105.5 72.75 107.25"
        fill="#00000000"
        stroke="#df0000"
        stroke-width="1"/>
    <path
        id="path_5"
        d="M 9.82 18.75 C 8 18.75 7.75 20.68 7.75 20.68 C 7.75 20.68 7.51 18.75 5.68 18.75 C 4.4 18.75 3.25 19.62 3.25 21.25 C 3.25 23.41 7.3 27.19 7.75 28.75 C 8.21 27.19 12.25 23.41 12.25 21.25 C 12.25 19.62 11.1 18.75 9.82 18.75 Z"
        fill="#df0000"/>
    <path
        id="path_6"
        d="M 67.68 102.75 C 69.5 102.75 69.75 100.82 69.75 100.82 C 69.75 100.82 69.99 102.75 71.82 102.75 C 73.1 102.75 74.25 101.88 74.25 100.25 C 74.25 98.09 70.2 94.31 69.75 92.75 C 69.29 94.31 65.25 98.09 65.25 100.25 C 65.25 101.88 66.4 102.75 67.68 102.75 Z"
        fill="#df0000"/>
    <path
        id="path_7"
        d="M 26.43 11.75 C 23.19 11.75 22.75 15.23 22.75 15.23 C 22.75 15.23 22.32 11.75 19.07 11.75 C 16.8 11.75 14.75 13.31 14.75 16.25 C 14.75 20.14 21.94 26.94 22.75 29.75 C 23.56 26.94 30.75 20.14 30.75 16.25 C 30.75 13.31 28.7 11.75 26.43 11.75 Z"
        fill="#df0000"/>
    <path
        id="path_8"
        d="M 26.43 38.5 C 23.19 38.5 22.75 41.98 22.75 41.98 C 22.75 41.98 22.32 38.5 19.07 38.5 C 16.8 38.5 14.75 40.06 14.75 43 C 14.75 46.89 21.94 53.69 22.75 56.5 C 23.56 53.69 30.75 46.89 30.75 43 C 30.75 40.06 28.7 38.5 26.43 38.5 Z"
        fill="#df0000"/>
    <path
        id="path_9"
        d="M 19.07 83 C 22.31 83 22.75 79.52 22.75 79.52 C 22.75 79.52 23.18 83 26.43 83 C 28.7 83 30.75 81.44 30.75 78.5 C 30.75 74.61 23.56 67.81 22.75 65 C 21.94 67.81 14.75 74.61 14.75 78.5 C 14.75 81.44 16.8 83 19.07 83 Z"
        fill="#df0000"/>
    <path
        id="path_10"
        d="M 19.07 109.75 C 22.31 109.75 22.75 106.27 22.75 106.27 C 22.75 106.27 23.18 109.75 26.43 109.75 C 28.7 109.75 30.75 108.19 30.75 105.25 C 30.75 101.36 23.56 94.56 22.75 91.75 C 21.94 94.56 14.75 101.36 14.75 105.25 C 14.75 108.19 16.8 109.75 19.07 109.75 Z"
        fill="#df0000"/>
    <path
        id="path_11"
        d="M 42.43 51.75 C 39.19 51.75 38.75 55.23 38.75 55.23 C 38.75 55.23 38.32 51.75 35.07 51.75 C 32.8 51.75 30.75 53.31 30.75 56.25 C 30.75 60.14 37.94 66.94 38.75 69.75 C 39.56 66.94 46.75 60.14 46.75 56.25 C 46.75 53.31 44.7 51.75 42.43 51.75 Z"
        fill="#df0000"/>
    <path
        id="path_12"
        d="M 58.43 11.75 C 55.19 11.75 54.75 15.23 54.75 15.23 C 54.75 15.23 54.32 11.75 51.07 11.75 C 48.8 11.75 46.75 13.31 46.75 16.25 C 46.75 20.14 53.94 26.94 54.75 29.75 C 55.56 26.94 62.75 20.14 62.75 16.25 C 62.75 13.31 60.7 11.75 58.43 11.75 Z"
        fill="#df0000"/>
    <path
        id="path_13"
        d="M 58.43 38.5 C 55.19 38.5 54.75 41.98 54.75 41.98 C 54.75 41.98 54.32 38.5 51.07 38.5 C 48.8 38.5 46.75 40.06 46.75 43 C 46.75 46.89 53.94 53.69 54.75 56.5 C 55.56 53.69 62.75 46.89 62.75 43 C 62.75 40.06 60.7 38.5 58.43 38.5 Z"
        fill="#df0000"/>
    <path
        id="path_14"
        d="M 51.07 83 C 54.31 83 54.75 79.52 54.75 79.52 C 54.75 79.52 55.18 83 58.43 83 C 60.7 83 62.75 81.44 62.75 78.5 C 62.75 74.61 55.56 67.81 54.75 65 C 53.94 67.81 46.75 74.61 46.75 78.5 C 46.75 81.44 48.8 83 51.07 83 Z"
        fill="#df0000"/>
    <path
        id="path_15"
        d="M 51.07 109.75 C 54.31 109.75 54.75 106.27 54.75 106.27 C 54.75 106.27 55.18 109.75 58.43 109.75 C 60.7 109.75 62.75 108.19 62.75 105.25 C 62.75 101.36 55.56 94.56 54.75 91.75 C 53.94 94.56 46.75 101.36 46.75 105.25 C 46.75 108.19 48.8 109.75 51.07 109.75 Z"
        fill="#df0000"/>
</svg>
