<svg
    xmlns="http://www.w3.org/2000/svg"
    viewBox="0 0 77 121"
    id="vector">
    <path
        id="path_12"
        d="M 77.5 116.5 C 77.5 119.26 75.26 121.5 72.5 121.5 L 5 121.5 C 2.24 121.5 0 119.26 0 116.5 L 0 5 C 0 2.24 2.24 0 5 0 L 72.5 0 C 75.26 0 77.5 2.24 77.5 5 L 77.5 116.5 Z"
        fill="none"
        stroke="#000000"
        stroke-width="1.5"/>
    <path
        id="path_13"
        d="M 4 6.25 L 4 4 L 10.5 4 L 11.25 4.75 C 9 7.5 7 12.5 7 17.25"
        fill="#00000000"
        stroke="#df0000"
        stroke-width="1"/>
    <path
        id="path_14"
        d="M 73.5 115.25 L 73.5 117.5 L 67 117.5 L 66.25 116.75 C 68.5 114 70.5 109 70.5 104.25"
        fill="#00000000"
        stroke="#df0000"
        stroke-width="1"/>
    <path
        id="path_15"
        d="M 9.82 18.75 C 8 18.75 7.75 20.68 7.75 20.68 C 7.75 20.68 7.51 18.75 5.68 18.75 C 4.4 18.75 3.25 19.62 3.25 21.25 C 3.25 23.41 7.3 27.19 7.75 28.75 C 8.21 27.19 12.25 23.41 12.25 21.25 C 12.25 19.62 11.1 18.75 9.82 18.75 Z"
        fill="#df0000"/>
    <path
        id="path_16"
        d="M 67.68 102.75 C 69.5 102.75 69.75 100.82 69.75 100.82 C 69.75 100.82 69.99 102.75 71.82 102.75 C 73.1 102.75 74.25 101.88 74.25 100.25 C 74.25 98.09 70.2 94.31 69.75 92.75 C 69.29 94.31 65.25 98.09 65.25 100.25 C 65.25 101.88 66.4 102.75 67.68 102.75 Z"
        fill="#df0000"/>
    <path
        id="path_17"
        d="M 26.43 11.75 C 23.19 11.75 22.75 15.23 22.75 15.23 C 22.75 15.23 22.32 11.75 19.07 11.75 C 16.8 11.75 14.75 13.31 14.75 16.25 C 14.75 20.14 21.94 26.94 22.75 29.75 C 23.56 26.94 30.75 20.14 30.75 16.25 C 30.75 13.31 28.7 11.75 26.43 11.75 Z"
        fill="#df0000"/>
    <path
        id="path_18"
        d="M 26.43 51.75 C 23.19 51.75 22.75 55.23 22.75 55.23 C 22.75 55.23 22.32 51.75 19.07 51.75 C 16.8 51.75 14.75 53.31 14.75 56.25 C 14.75 60.14 21.94 66.94 22.75 69.75 C 23.56 66.94 30.75 60.14 30.75 56.25 C 30.75 53.31 28.7 51.75 26.43 51.75 Z"
        fill="#df0000"/>
    <path
        id="path_19"
        d="M 19.07 109.75 C 22.31 109.75 22.75 106.27 22.75 106.27 C 22.75 106.27 23.18 109.75 26.43 109.75 C 28.7 109.75 30.75 108.19 30.75 105.25 C 30.75 101.36 23.56 94.56 22.75 91.75 C 21.94 94.56 14.75 101.36 14.75 105.25 C 14.75 108.19 16.8 109.75 19.07 109.75 Z"
        fill="#df0000"/>
    <path
        id="path_20"
        d="M 42.43 31.75 C 39.19 31.75 38.75 35.23 38.75 35.23 C 38.75 35.23 38.32 31.75 35.07 31.75 C 32.8 31.75 30.75 33.31 30.75 36.25 C 30.75 40.14 37.94 46.94 38.75 49.75 C 39.56 46.94 46.75 40.14 46.75 36.25 C 46.75 33.31 44.7 31.75 42.43 31.75 Z"
        fill="#df0000"/>
    <path
        id="path_21"
        d="M 58.43 11.75 C 55.19 11.75 54.75 15.23 54.75 15.23 C 54.75 15.23 54.32 11.75 51.07 11.75 C 48.8 11.75 46.75 13.31 46.75 16.25 C 46.75 20.14 53.94 26.94 54.75 29.75 C 55.56 26.94 62.75 20.14 62.75 16.25 C 62.75 13.31 60.7 11.75 58.43 11.75 Z"
        fill="#df0000"/>
    <path
        id="path_22"
        d="M 58.43 51.75 C 55.19 51.75 54.75 55.23 54.75 55.23 C 54.75 55.23 54.32 51.75 51.07 51.75 C 48.8 51.75 46.75 53.31 46.75 56.25 C 46.75 60.14 53.94 66.94 54.75 69.75 C 55.56 66.94 62.75 60.14 62.75 56.25 C 62.75 53.31 60.7 51.75 58.43 51.75 Z"
        fill="#df0000"/>
    <path
        id="path_23"
        d="M 51.07 109.75 C 54.31 109.75 54.75 106.27 54.75 106.27 C 54.75 106.27 55.18 109.75 58.43 109.75 C 60.7 109.75 62.75 108.19 62.75 105.25 C 62.75 101.36 55.56 94.56 54.75 91.75 C 53.94 94.56 46.75 101.36 46.75 105.25 C 46.75 108.19 48.8 109.75 51.07 109.75 Z"
        fill="#df0000"/>
</svg>
