<svg
    xmlns="http://www.w3.org/2000/svg"
    viewBox="0 0 77 121"
    id="vector">
    <path
        id="path_12"
        d="M 77.5 116.5 C 77.5 119.26 75.26 121.5 72.5 121.5 L 5 121.5 C 2.24 121.5 0 119.26 0 116.5 L 0 5 C 0 2.24 2.24 0 5 0 L 72.5 0 C 75.26 0 77.5 2.24 77.5 5 L 77.5 116.5 Z"
        fill="none"
        stroke="#000000"
        stroke-width="1.5"/>
    <path
        id="path_13"
        d="M 11.25 13 C 11.25 12.072 10.881 11.181 10.225 10.525 C 9.569 9.869 8.678 9.5 7.75 9.5 C 6.822 9.5 5.931 9.869 5.275 10.525 C 4.619 11.181 4.25 12.072 4.25 13 C 4.25 13.928 4.619 14.819 5.275 15.475 C 5.931 16.131 6.822 16.5 7.75 16.5 C 8.678 16.5 9.569 16.131 10.225 15.475 C 10.881 14.819 11.25 13.928 11.25 13"
        fill="#00000000"
        stroke="#df0000"
        stroke-width="1"/>
    <path
        id="path_14"
        d="M 10.75 6.5 C 10.75 5.705 10.434 4.941 9.871 4.379 C 9.309 3.816 8.545 3.5 7.75 3.5 C 6.955 3.5 6.191 3.816 5.629 4.379 C 5.066 4.941 4.75 5.705 4.75 6.5 C 4.75 7.295 5.066 8.059 5.629 8.621 C 6.191 9.184 6.955 9.5 7.75 9.5 C 8.545 9.5 9.309 9.184 9.871 8.621 C 10.434 8.059 10.75 7.295 10.75 6.5"
        fill="#00000000"
        stroke="#df0000"
        stroke-width="1"/>
    <path
        id="path_15"
        d="M 72.75 115 C 72.75 114.205 72.434 113.441 71.871 112.879 C 71.309 112.316 70.545 112 69.75 112 C 68.955 112 68.191 112.316 67.629 112.879 C 67.066 113.441 66.75 114.205 66.75 115 C 66.75 115.795 67.066 116.559 67.629 117.121 C 68.191 117.684 68.955 118 69.75 118 C 70.545 118 71.309 117.684 71.871 117.121 C 72.434 116.559 72.75 115.795 72.75 115"
        fill="#00000000"
        stroke="#df0000"
        stroke-width="1"/>
    <path
        id="path_16"
        d="M 73.25 108.5 C 73.25 107.572 72.881 106.681 72.225 106.025 C 71.569 105.369 70.678 105 69.75 105 C 68.822 105 67.931 105.369 67.275 106.025 C 66.619 106.681 66.25 107.572 66.25 108.5 C 66.25 109.428 66.619 110.319 67.275 110.975 C 67.931 111.631 68.822 112 69.75 112 C 70.678 112 71.569 111.631 72.225 110.975 C 72.881 110.319 73.25 109.428 73.25 108.5"
        fill="#00000000"
        stroke="#df0000"
        stroke-width="1"/>
    <path
        id="path_17"
        d="M 9.82 18.75 C 8 18.75 7.75 20.68 7.75 20.68 C 7.75 20.68 7.51 18.75 5.68 18.75 C 4.4 18.75 3.25 19.62 3.25 21.25 C 3.25 23.41 7.3 27.19 7.75 28.75 C 8.21 27.19 12.25 23.41 12.25 21.25 C 12.25 19.62 11.1 18.75 9.82 18.75 Z"
        fill="#df0000"/>
    <path
        id="path_18"
        d="M 67.68 102.75 C 69.5 102.75 69.75 100.82 69.75 100.82 C 69.75 100.82 69.99 102.75 71.82 102.75 C 73.1 102.75 74.25 101.88 74.25 100.25 C 74.25 98.09 70.2 94.31 69.75 92.75 C 69.29 94.31 65.25 98.09 65.25 100.25 C 65.25 101.88 66.4 102.75 67.68 102.75 Z"
        fill="#df0000"/>
    <path
        id="path_19"
        d="M 26.43 11.75 C 23.19 11.75 22.75 15.23 22.75 15.23 C 22.75 15.23 22.32 11.75 19.07 11.75 C 16.8 11.75 14.75 13.31 14.75 16.25 C 14.75 20.14 21.94 26.94 22.75 29.75 C 23.56 26.94 30.75 20.14 30.75 16.25 C 30.75 13.31 28.7 11.75 26.43 11.75 Z"
        fill="#df0000"/>
    <path
        id="path_20"
        d="M 26.43 51.75 C 23.19 51.75 22.75 55.23 22.75 55.23 C 22.75 55.23 22.32 51.75 19.07 51.75 C 16.8 51.75 14.75 53.31 14.75 56.25 C 14.75 60.14 21.94 66.94 22.75 69.75 C 23.56 66.94 30.75 60.14 30.75 56.25 C 30.75 53.31 28.7 51.75 26.43 51.75 Z"
        fill="#df0000"/>
    <path
        id="path_21"
        d="M 19.07 109.75 C 22.31 109.75 22.75 106.27 22.75 106.27 C 22.75 106.27 23.18 109.75 26.43 109.75 C 28.7 109.75 30.75 108.19 30.75 105.25 C 30.75 101.36 23.56 94.56 22.75 91.75 C 21.94 94.56 14.75 101.36 14.75 105.25 C 14.75 108.19 16.8 109.75 19.07 109.75 Z"
        fill="#df0000"/>
    <path
        id="path_22"
        d="M 42.43 31.75 C 39.19 31.75 38.75 35.23 38.75 35.23 C 38.75 35.23 38.32 31.75 35.07 31.75 C 32.8 31.75 30.75 33.31 30.75 36.25 C 30.75 40.14 37.94 46.94 38.75 49.75 C 39.56 46.94 46.75 40.14 46.75 36.25 C 46.75 33.31 44.7 31.75 42.43 31.75 Z"
        fill="#df0000"/>
    <path
        id="path_23"
        d="M 35.07 89.75 C 38.31 89.75 38.75 86.27 38.75 86.27 C 38.75 86.27 39.18 89.75 42.43 89.75 C 44.7 89.75 46.75 88.19 46.75 85.25 C 46.75 81.36 39.56 74.56 38.75 71.75 C 37.94 74.56 30.75 81.36 30.75 85.25 C 30.75 88.19 32.8 89.75 35.07 89.75 Z"
        fill="#df0000"/>
    <path
        id="path_24"
        d="M 58.43 11.75 C 55.19 11.75 54.75 15.23 54.75 15.23 C 54.75 15.23 54.32 11.75 51.07 11.75 C 48.8 11.75 46.75 13.31 46.75 16.25 C 46.75 20.14 53.94 26.94 54.75 29.75 C 55.56 26.94 62.75 20.14 62.75 16.25 C 62.75 13.31 60.7 11.75 58.43 11.75 Z"
        fill="#df0000"/>
    <path
        id="path_25"
        d="M 58.43 51.75 C 55.19 51.75 54.75 55.23 54.75 55.23 C 54.75 55.23 54.32 51.75 51.07 51.75 C 48.8 51.75 46.75 53.31 46.75 56.25 C 46.75 60.14 53.94 66.94 54.75 69.75 C 55.56 66.94 62.75 60.14 62.75 56.25 C 62.75 53.31 60.7 51.75 58.43 51.75 Z"
        fill="#df0000"/>
    <path
        id="path_26"
        d="M 51.07 109.75 C 54.31 109.75 54.75 106.27 54.75 106.27 C 54.75 106.27 55.18 109.75 58.43 109.75 C 60.7 109.75 62.75 108.19 62.75 105.25 C 62.75 101.36 55.56 94.56 54.75 91.75 C 53.94 94.56 46.75 101.36 46.75 105.25 C 46.75 108.19 48.8 109.75 51.07 109.75 Z"
        fill="#df0000"/>
</svg>
