<svg
    xmlns="http://www.w3.org/2000/svg"
    viewBox="0 0 77 121"
    id="vector">
    <path
        id="path"
        d="M 77.5 116.5 C 77.5 119.26 75.26 121.5 72.5 121.5 L 5 121.5 C 2.24 121.5 0 119.26 0 116.5 L 0 5 C 0 2.24 2.24 0 5 0 L 72.5 0 C 75.26 0 77.5 2.24 77.5 5 L 77.5 116.5 Z"
        fill="none"
        stroke="#000000"
        stroke-width="1.5"/>
    <path
        id="path_1"
        d="M 11.5 14.35 C 11.5 15.54 10.49 16.5 9.25 16.5 C 8.01 16.5 7 15.54 7 14.35 L 7 6.15 C 7 4.96 8.01 4 9.25 4 C 10.49 4 11.5 4.96 11.5 6.15 L 11.5 14.35 Z"
        fill="#00000000"
        stroke="#ffffff"
        stroke-width="1"/>
    <path
        id="path_2"
        d="M 4 3.5 L 4 17"
        fill="#00000000"
        stroke="#ffffff"
        stroke-width="1"/>
    <path
        id="path_3"
        d="M 73.5 118 L 73.5 104.5"
        fill="#00000000"
        stroke="#ffffff"
        stroke-width="1"/>
    <path
        id="path_4"
        d="M 66 107.15 C 66 105.96 67.01 105 68.25 105 C 69.49 105 70.5 105.96 70.5 107.15 L 70.5 115.35 C 70.5 116.54 69.49 117.5 68.25 117.5 C 67.01 117.5 66 116.54 66 115.35 L 66 107.15 Z"
        fill="#00000000"
        stroke="#ffffff"
        stroke-width="1"/>
    <path
        id="path_5"
        d="M 8.89 23.29 C 8.89 23.29 10.14 22.29 10.14 20.9 C 10.14 20.09 9.42 18.74 7.75 18.74 C 6.08 18.74 5.36 20.09 5.36 20.9 C 5.36 22.29 6.61 23.29 6.61 23.29 C 5.22 22.21 2.75 22.95 2.75 25.11 C 2.75 26.19 3.63 27.38 5.02 27.38 C 6.69 27.38 7.41 25.56 7.41 25.56 C 7.41 25.56 7.62 27.63 6.39 28.74 L 9.12 28.74 C 7.89 27.63 8.1 25.56 8.1 25.56 C 8.1 25.56 8.82 27.38 10.49 27.38 C 11.88 27.38 12.76 26.19 12.76 25.11 C 12.76 22.95 10.28 22.21 8.9 23.29 Z"
        fill="#ffffff"/>
    <path
        id="path_6"
        d="M 68.61 98.2 C 68.61 98.2 67.36 99.2 67.36 100.59 C 67.36 101.4 68.08 102.75 69.75 102.75 C 71.42 102.75 72.14 101.4 72.14 100.59 C 72.14 99.2 70.89 98.2 70.89 98.2 C 72.28 99.28 74.75 98.54 74.75 96.38 C 74.75 95.3 73.87 94.11 72.48 94.11 C 70.81 94.11 70.09 95.93 70.09 95.93 C 70.09 95.93 69.88 93.86 71.11 92.75 L 68.38 92.75 C 69.61 93.86 69.4 95.93 69.4 95.93 C 69.4 95.93 68.68 94.11 67.01 94.11 C 65.62 94.11 64.74 95.3 64.74 96.38 C 64.74 98.54 67.22 99.28 68.6 98.2 Z"
        fill="#ffffff"/>
    <path
        id="path_7"
        d="M 24.91 19.89 C 24.91 19.89 27.29 17.99 27.29 15.36 C 27.29 13.82 25.92 11.26 22.76 11.26 C 19.6 11.26 18.23 13.82 18.23 15.36 C 18.23 17.99 20.61 19.89 20.61 19.89 C 17.97 17.83 13.27 19.24 13.27 23.34 C 13.27 25.4 14.95 27.66 17.59 27.66 C 20.75 27.66 22.12 24.21 22.12 24.21 C 22.12 24.21 22.52 28.15 20.18 30.26 L 25.36 30.26 C 23.01 28.15 23.42 24.21 23.42 24.21 C 23.42 24.21 24.79 27.66 27.95 27.66 C 30.59 27.66 32.27 25.4 32.27 23.34 C 32.27 19.23 27.57 17.83 24.93 19.89 Z"
        fill="#ffffff"/>
    <path
        id="path_8"
        d="M 24.91 46.64 C 24.91 46.64 27.29 44.74 27.29 42.11 C 27.29 40.57 25.92 38.01 22.76 38.01 C 19.6 38.01 18.23 40.57 18.23 42.11 C 18.23 44.74 20.61 46.64 20.61 46.64 C 17.97 44.58 13.27 45.99 13.27 50.09 C 13.27 52.15 14.95 54.41 17.59 54.41 C 20.75 54.41 22.12 50.96 22.12 50.96 C 22.12 50.96 22.52 54.9 20.18 57.01 L 25.36 57.01 C 23.01 54.9 23.42 50.96 23.42 50.96 C 23.42 50.96 24.79 54.41 27.95 54.41 C 30.59 54.41 32.27 52.15 32.27 50.09 C 32.27 45.98 27.57 44.58 24.93 46.64 Z"
        fill="#ffffff"/>
    <path
        id="path_9"
        d="M 20.59 74.86 C 20.59 74.86 18.21 76.76 18.21 79.39 C 18.21 80.93 19.58 83.49 22.74 83.49 C 25.9 83.49 27.27 80.93 27.27 79.39 C 27.27 76.76 24.89 74.86 24.89 74.86 C 27.53 76.92 32.23 75.51 32.23 71.41 C 32.23 69.35 30.55 67.09 27.91 67.09 C 24.75 67.09 23.38 70.54 23.38 70.54 C 23.38 70.54 22.98 66.6 25.32 64.49 L 20.14 64.49 C 22.49 66.6 22.08 70.54 22.08 70.54 C 22.08 70.54 20.71 67.09 17.55 67.09 C 14.91 67.09 13.23 69.35 13.23 71.41 C 13.23 75.52 17.93 76.92 20.57 74.86 Z"
        fill="#ffffff"/>
    <path
        id="path_10"
        d="M 20.59 101.61 C 20.59 101.61 18.21 103.51 18.21 106.14 C 18.21 107.68 19.58 110.24 22.74 110.24 C 25.9 110.24 27.27 107.68 27.27 106.14 C 27.27 103.51 24.89 101.61 24.89 101.61 C 27.53 103.67 32.23 102.26 32.23 98.16 C 32.23 96.1 30.55 93.84 27.91 93.84 C 24.75 93.84 23.38 97.29 23.38 97.29 C 23.38 97.29 22.98 93.35 25.32 91.24 L 20.14 91.24 C 22.49 93.35 22.08 97.29 22.08 97.29 C 22.08 97.29 20.71 93.84 17.55 93.84 C 14.91 93.84 13.23 96.1 13.23 98.16 C 13.23 102.27 17.93 103.67 20.57 101.61 Z"
        fill="#ffffff"/>
    <path
        id="path_11"
        d="M 40.91 33.26 C 40.91 33.26 43.29 31.36 43.29 28.73 C 43.29 27.19 41.92 24.63 38.76 24.63 C 35.6 24.63 34.23 27.19 34.23 28.73 C 34.23 31.36 36.61 33.26 36.61 33.26 C 33.97 31.2 29.27 32.61 29.27 36.71 C 29.27 38.77 30.95 41.03 33.59 41.03 C 36.75 41.03 38.12 37.58 38.12 37.58 C 38.12 37.58 38.52 41.52 36.18 43.63 L 41.36 43.63 C 39.01 41.52 39.42 37.58 39.42 37.58 C 39.42 37.58 40.79 41.03 43.95 41.03 C 46.59 41.03 48.27 38.77 48.27 36.71 C 48.27 32.6 43.57 31.2 40.93 33.26 Z"
        fill="#ffffff"/>
    <path
        id="path_24"
        d="M 36.59 88.24 C 36.59 88.24 34.21 90.14 34.21 92.77 C 34.21 94.31 35.58 96.87 38.74 96.87 C 41.9 96.87 43.27 94.31 43.27 92.77 C 43.27 90.14 40.89 88.24 40.89 88.24 C 43.53 90.3 48.23 88.89 48.23 84.79 C 48.23 82.73 46.55 80.47 43.91 80.47 C 40.75 80.47 39.38 83.92 39.38 83.92 C 39.38 83.92 38.98 79.98 41.32 77.87 L 36.14 77.87 C 38.49 79.98 38.08 83.92 38.08 83.92 C 38.08 83.92 36.71 80.47 33.55 80.47 C 30.91 80.47 29.23 82.73 29.23 84.79 C 29.23 88.9 33.93 90.3 36.57 88.24 Z"
        fill="#ffffff"/>
    <path
        id="path_26"
        d="M 56.91 19.89 C 56.91 19.89 59.29 17.99 59.29 15.36 C 59.29 13.82 57.92 11.26 54.76 11.26 C 51.6 11.26 50.23 13.82 50.23 15.36 C 50.23 17.99 52.61 19.89 52.61 19.89 C 49.97 17.83 45.27 19.24 45.27 23.34 C 45.27 25.4 46.95 27.66 49.59 27.66 C 52.75 27.66 54.12 24.21 54.12 24.21 C 54.12 24.21 54.52 28.15 52.18 30.26 L 57.36 30.26 C 55.01 28.15 55.42 24.21 55.42 24.21 C 55.42 24.21 56.79 27.66 59.95 27.66 C 62.59 27.66 64.27 25.4 64.27 23.34 C 64.27 19.23 59.57 17.83 56.93 19.89 Z"
        fill="#ffffff"/>
    <path
        id="path_27"
        d="M 56.91 46.64 C 56.91 46.64 59.29 44.74 59.29 42.11 C 59.29 40.57 57.92 38.01 54.76 38.01 C 51.6 38.01 50.23 40.57 50.23 42.11 C 50.23 44.74 52.61 46.64 52.61 46.64 C 49.97 44.58 45.27 45.99 45.27 50.09 C 45.27 52.15 46.95 54.41 49.59 54.41 C 52.75 54.41 54.12 50.96 54.12 50.96 C 54.12 50.96 54.52 54.9 52.18 57.01 L 57.36 57.01 C 55.01 54.9 55.42 50.96 55.42 50.96 C 55.42 50.96 56.79 54.41 59.95 54.41 C 62.59 54.41 64.27 52.15 64.27 50.09 C 64.27 45.98 59.57 44.58 56.93 46.64 Z"
        fill="#ffffff"/>
    <path
        id="path_28"
        d="M 52.59 74.86 C 52.59 74.86 50.21 76.76 50.21 79.39 C 50.21 80.93 51.58 83.49 54.74 83.49 C 57.9 83.49 59.27 80.93 59.27 79.39 C 59.27 76.76 56.89 74.86 56.89 74.86 C 59.53 76.92 64.23 75.51 64.23 71.41 C 64.23 69.35 62.55 67.09 59.91 67.09 C 56.75 67.09 55.38 70.54 55.38 70.54 C 55.38 70.54 54.98 66.6 57.32 64.49 L 52.14 64.49 C 54.49 66.6 54.08 70.54 54.08 70.54 C 54.08 70.54 52.71 67.09 49.55 67.09 C 46.91 67.09 45.23 69.35 45.23 71.41 C 45.23 75.52 49.93 76.92 52.57 74.86 Z"
        fill="#ffffff"/>
    <path
        id="path_29"
        d="M 52.59 101.61 C 52.59 101.61 50.21 103.51 50.21 106.14 C 50.21 107.68 51.58 110.24 54.74 110.24 C 57.9 110.24 59.27 107.68 59.27 106.14 C 59.27 103.51 56.89 101.61 56.89 101.61 C 59.53 103.67 64.23 102.26 64.23 98.16 C 64.23 96.1 62.55 93.84 59.91 93.84 C 56.75 93.84 55.38 97.29 55.38 97.29 C 55.38 97.29 54.98 93.35 57.32 91.24 L 52.14 91.24 C 54.49 93.35 54.08 97.29 54.08 97.29 C 54.08 97.29 52.71 93.84 49.55 93.84 C 46.91 93.84 45.23 96.1 45.23 98.16 C 45.23 102.27 49.93 103.67 52.57 101.61 Z"
        fill="#ffffff"/>
</svg>
