<svg
    xmlns="http://www.w3.org/2000/svg"
    viewBox="0 0 77 121"
    id="vector">
    <path
        id="path"
        d="M 77.5 116.5 C 77.5 119.26 75.26 121.5 72.5 121.5 L 5 121.5 C 2.24 121.5 0 119.26 0 116.5 L 0 5 C 0 2.24 2.24 0 5 0 L 72.5 0 C 75.26 0 77.5 2.24 77.5 5 L 77.5 116.5 Z"
        fill="none"
        stroke="#000000"
        stroke-width="1.5"/>
    <path
        id="path_1"
        d="M 3.25 16.5 L 6.75 16.5"
        fill="#00000000"
        stroke="#000000"
        stroke-width="1"/>
    <path
        id="path_2"
        d="M 12.25 16.5 L 8.75 16.5"
        fill="#00000000"
        stroke="#000000"
        stroke-width="1"/>
    <path
        id="path_3"
        d="M 4.75 16.5 L 7.75 3.25 L 10.75 16.5"
        fill="#00000000"
        stroke="#000000"
        stroke-width="1"/>
    <path
        id="path_4"
        d="M 5.5 13.25 L 10 13.25"
        fill="#00000000"
        stroke="#000000"
        stroke-width="1"/>
    <path
        id="path_5"
        d="M 72 108.25 L 67.5 108.25"
        fill="#00000000"
        stroke="#000000"
        stroke-width="1"/>
    <path
        id="path_6"
        d="M 74.25 105 L 70.75 105"
        fill="#00000000"
        stroke="#000000"
        stroke-width="1"/>
    <path
        id="path_7"
        d="M 65.25 105 L 68.75 105"
        fill="#00000000"
        stroke="#000000"
        stroke-width="1"/>
    <path
        id="path_8"
        d="M 72.75 105 L 69.75 118.25 L 66.75 105"
        fill="#00000000"
        stroke="#000000"
        stroke-width="1"/>
    <path
        id="path_9"
        d="M 12.24 25.38 C 12.11 23.25 7.89 19.25 7.75 18.25 C 7.61 19.25 3.39 23.25 3.26 25.38 C 3.16 26.88 4.21 27.5 5.16 27.5 C 6.53 27.5 6.93 26.13 7.07 25.75 C 7.07 25.63 7.34 25.63 7.34 25.75 C 7.48 26.13 6.44 29.25 6.12 29.25 L 9.38 29.25 C 9.06 29.25 8.02 26.13 8.16 25.75 C 8.16 25.63 8.43 25.63 8.43 25.75 C 8.57 26.13 8.97 27.5 10.34 27.5 C 11.29 27.5 12.34 26.88 12.24 25.38 Z"
        fill="#000000"/>
    <path
        id="path_10"
        d="M 65.26 96.13 C 65.39 98.25 69.61 102.25 69.75 103.25 C 69.89 102.25 74.11 98.25 74.24 96.13 C 74.34 94.62 73.29 94 72.34 94 C 70.98 94 70.57 95.38 70.43 95.75 C 70.43 95.88 70.16 95.88 70.16 95.75 C 70.02 95.38 71.06 92.25 71.38 92.25 L 68.12 92.25 C 68.44 92.25 69.48 95.38 69.34 95.75 C 69.34 95.88 69.07 95.88 69.07 95.75 C 68.93 95.38 68.53 94 67.16 94 C 66.21 94 65.16 94.62 65.26 96.13 Z"
        fill="#000000"/>
    <path
        id="path_11"
        d="M 46.74 63.85 C 46.5 59.8 38.99 52.16 38.75 50.25 C 38.51 52.16 31 59.79 30.76 63.85 C 30.59 66.72 32.46 67.91 34.15 67.91 C 36.57 67.91 37.3 65.29 37.54 64.57 C 37.54 64.33 38.02 64.33 38.02 64.57 C 38.27 65.29 36.42 71.25 35.85 71.25 L 41.66 71.25 C 41.08 71.25 39.24 65.29 39.48 64.57 C 39.48 64.33 39.96 64.33 39.96 64.57 C 40.2 65.29 40.93 67.91 43.35 67.91 C 45.05 67.91 46.91 66.72 46.74 63.85 L 46.74 63.85 Z"
        fill="#000000"/>
</svg>
