<svg
    xmlns="http://www.w3.org/2000/svg"
    viewBox="0 0 77 121"
    id="vector">
    <path
        id="path"
        d="M 77.5 116.5 C 77.5 119.26 75.26 121.5 72.5 121.5 L 5 121.5 C 2.24 121.5 0 119.26 0 116.5 L 0 5 C 0 2.24 2.24 0 5 0 L 72.5 0 C 75.26 0 77.5 2.24 77.5 5 L 77.5 116.5 Z"
        fill="none"
        stroke="#000000"
        stroke-width="1.5"/>
    <path
        id="path_1"
        d="M 3.25 16.5 L 6.75 16.5"
        fill="#00000000"
        stroke="#df0000"
        stroke-width="1"/>
    <path
        id="path_2"
        d="M 12.25 16.5 L 8.75 16.5"
        fill="#00000000"
        stroke="#df0000"
        stroke-width="1"/>
    <path
        id="path_3"
        d="M 4.75 16.5 L 7.75 3.25 L 10.75 16.5"
        fill="#00000000"
        stroke="#df0000"
        stroke-width="1"/>
    <path
        id="path_4"
        d="M 5.5 13.25 L 10 13.25"
        fill="#00000000"
        stroke="#df0000"
        stroke-width="1"/>
    <path
        id="path_5"
        d="M 72 108.25 L 67.5 108.25"
        fill="#00000000"
        stroke="#df0000"
        stroke-width="1"/>
    <path
        id="path_6"
        d="M 74.25 105 L 70.75 105"
        fill="#00000000"
        stroke="#df0000"
        stroke-width="1"/>
    <path
        id="path_7"
        d="M 65.25 105 L 68.75 105"
        fill="#00000000"
        stroke="#df0000"
        stroke-width="1"/>
    <path
        id="path_8"
        d="M 72.75 105 L 69.75 118.25 L 66.75 105"
        fill="#00000000"
        stroke="#df0000"
        stroke-width="1"/>
    <path
        id="path_9"
        d="M 9.74 21.13 C 8.54 19.63 7.75 18.25 7.75 18.25 C 7.75 18.25 6.96 19.63 5.76 21.13 C 4.57 22.63 3.25 23.75 3.25 23.75 C 3.25 23.75 4.57 24.88 5.76 26.38 C 6.96 27.88 7.75 29.25 7.75 29.25 C 7.75 29.25 8.54 27.88 9.74 26.38 C 10.93 24.88 12.25 23.75 12.25 23.75 C 12.25 23.75 10.93 22.63 9.74 21.13 Z"
        fill="#df0000"/>
    <path
        id="path_10"
        d="M 71.74 95.13 C 70.54 93.63 69.75 92.25 69.75 92.25 C 69.75 92.25 68.96 93.63 67.76 95.13 C 66.57 96.63 65.25 97.75 65.25 97.75 C 65.25 97.75 66.57 98.88 67.76 100.38 C 68.96 101.88 69.75 103.25 69.75 103.25 C 69.75 103.25 70.54 101.88 71.74 100.38 C 72.93 98.88 74.25 97.75 74.25 97.75 C 74.25 97.75 72.93 96.63 71.74 95.13 Z"
        fill="#df0000"/>
    <path
        id="path_11"
        d="M 42.28 55.74 C 40.16 52.88 38.75 50.25 38.75 50.25 C 38.75 50.25 37.34 52.88 35.22 55.74 C 33.1 58.6 30.75 60.75 30.75 60.75 C 30.75 60.75 33.1 62.9 35.22 65.76 C 37.34 68.63 38.75 71.25 38.75 71.25 C 38.75 71.25 40.16 68.63 42.28 65.76 C 44.4 62.9 46.75 60.75 46.75 60.75 C 46.75 60.75 44.4 58.6 42.28 55.74 Z"
        fill="#df0000"/>
</svg>
