<svg
    xmlns="http://www.w3.org/2000/svg"
    viewBox="0 0 77 121"
    id="vector">
    <path
        id="path"
        d="M 77.5 116.5 C 77.5 119.26 75.26 121.5 72.5 121.5 L 5 121.5 C 2.24 121.5 0 119.26 0 116.5 L 0 5 C 0 2.24 2.24 0 5 0 L 72.5 0 C 75.26 0 77.5 2.24 77.5 5 L 77.5 116.5 Z"
        fill="none"
        stroke="#000000"
        stroke-width="1.5"/>
    <path
        id="path_1"
        d="M 4 6.25 L 4 4 L 10.75 4 L 10.75 4.75 L 5.75 10 C 5.75 10 6.75 9.5 8.25 9.5 C 9.75 9.5 11.5 10.75 11.5 12.75 C 11.5 14.75 10 16.5 7.75 16.5 C 6 16.5 4.5 15.5 4 14"
        fill="#00000000"
        stroke="#df0000"
        stroke-width="1"/>
    <path
        id="path_2"
        d="M 73.5 115.25 L 73.5 117.5 L 66.75 117.5 L 66.75 116.75 L 71.75 111.5 C 71.75 111.5 70.75 112 69.25 112 C 67.75 112 66 110.75 66 108.75 C 66 106.75 67.5 105 69.75 105 C 71.5 105 73 106 73.5 107.5"
        fill="#00000000"
        stroke="#df0000"
        stroke-width="1"/>
    <path
        id="path_3"
        d="M 9.82 18.75 C 8 18.75 7.75 20.68 7.75 20.68 C 7.75 20.68 7.51 18.75 5.68 18.75 C 4.4 18.75 3.25 19.62 3.25 21.25 C 3.25 23.41 7.3 27.19 7.75 28.75 C 8.21 27.19 12.25 23.41 12.25 21.25 C 12.25 19.62 11.1 18.75 9.82 18.75 Z"
        fill="#df0000"/>
    <path
        id="path_4"
        d="M 67.68 102.75 C 69.5 102.75 69.75 100.82 69.75 100.82 C 69.75 100.82 69.99 102.75 71.82 102.75 C 73.1 102.75 74.25 101.88 74.25 100.25 C 74.25 98.09 70.2 94.31 69.75 92.75 C 69.29 94.31 65.25 98.09 65.25 100.25 C 65.25 101.88 66.4 102.75 67.68 102.75 Z"
        fill="#df0000"/>
    <path
        id="path_5"
        d="M 42.43 11.75 C 39.19 11.75 38.75 15.23 38.75 15.23 C 38.75 15.23 38.32 11.75 35.07 11.75 C 32.8 11.75 30.75 13.31 30.75 16.25 C 30.75 20.14 37.94 26.94 38.75 29.75 C 39.56 26.94 46.75 20.14 46.75 16.25 C 46.75 13.31 44.7 11.75 42.43 11.75 Z"
        fill="#df0000"/>
    <path
        id="path_6"
        d="M 42.43 51.75 C 39.19 51.75 38.75 55.23 38.75 55.23 C 38.75 55.23 38.32 51.75 35.07 51.75 C 32.8 51.75 30.75 53.31 30.75 56.25 C 30.75 60.14 37.94 66.94 38.75 69.75 C 39.56 66.94 46.75 60.14 46.75 56.25 C 46.75 53.31 44.7 51.75 42.43 51.75 Z"
        fill="#df0000"/>
    <path
        id="path_7"
        d="M 35.07 109.75 C 38.31 109.75 38.75 106.27 38.75 106.27 C 38.75 106.27 39.18 109.75 42.43 109.75 C 44.7 109.75 46.75 108.19 46.75 105.25 C 46.75 101.36 39.56 94.56 38.75 91.75 C 37.94 94.56 30.75 101.36 30.75 105.25 C 30.75 108.19 32.8 109.75 35.07 109.75 Z"
        fill="#df0000"/>
</svg>
