<svg
    xmlns="http://www.w3.org/2000/svg"
    viewBox="0 0 77 121"
    id="vector">
    <path
        id="path"
        d="M 77.5 116.5 C 77.5 119.26 75.26 121.5 72.5 121.5 L 5 121.5 C 2.24 121.5 0 119.26 0 116.5 L 0 5 C 0 2.24 2.24 0 5 0 L 72.5 0 C 75.26 0 77.5 2.24 77.5 5 L 77.5 116.5 Z"
        fill="none"
        stroke="#000000"
        stroke-width="1.5"/>
    <path
        id="path_1"
        d="M 11.25 13 C 11.25 12.072 10.881 11.181 10.225 10.525 C 9.569 9.869 8.678 9.5 7.75 9.5 C 6.822 9.5 5.931 9.869 5.275 10.525 C 4.619 11.181 4.25 12.072 4.25 13 C 4.25 13.928 4.619 14.819 5.275 15.475 C 5.931 16.131 6.822 16.5 7.75 16.5 C 8.678 16.5 9.569 16.131 10.225 15.475 C 10.881 14.819 11.25 13.928 11.25 13"
        fill="#00000000"
        stroke="#000000"
        stroke-width="1"/>
    <path
        id="path_2"
        d="M 10.75 6.5 C 10.75 5.705 10.434 4.941 9.871 4.379 C 9.309 3.816 8.545 3.5 7.75 3.5 C 6.955 3.5 6.191 3.816 5.629 4.379 C 5.066 4.941 4.75 5.705 4.75 6.5 C 4.75 7.295 5.066 8.059 5.629 8.621 C 6.191 9.184 6.955 9.5 7.75 9.5 C 8.545 9.5 9.309 9.184 9.871 8.621 C 10.434 8.059 10.75 7.295 10.75 6.5"
        fill="#00000000"
        stroke="#000000"
        stroke-width="1"/>
    <path
        id="path_3"
        d="M 72.75 115 C 72.75 114.205 72.434 113.441 71.871 112.879 C 71.309 112.316 70.545 112 69.75 112 C 68.955 112 68.191 112.316 67.629 112.879 C 67.066 113.441 66.75 114.205 66.75 115 C 66.75 115.795 67.066 116.559 67.629 117.121 C 68.191 117.684 68.955 118 69.75 118 C 70.545 118 71.309 117.684 71.871 117.121 C 72.434 116.559 72.75 115.795 72.75 115"
        fill="#00000000"
        stroke="#000000"
        stroke-width="1"/>
    <path
        id="path_4"
        d="M 73.25 108.5 C 73.25 107.572 72.881 106.681 72.225 106.025 C 71.569 105.369 70.678 105 69.75 105 C 68.822 105 67.931 105.369 67.275 106.025 C 66.619 106.681 66.25 107.572 66.25 108.5 C 66.25 109.428 66.619 110.319 67.275 110.975 C 67.931 111.631 68.822 112 69.75 112 C 70.678 112 71.569 111.631 72.225 110.975 C 72.881 110.319 73.25 109.428 73.25 108.5"
        fill="#00000000"
        stroke="#000000"
        stroke-width="1"/>
    <path
        id="path_5"
        d="M 12.24 25.37 C 12.1 23.24 7.88 19.24 7.75 18.24 C 7.61 19.24 3.39 23.24 3.26 25.37 C 3.17 26.87 4.21 27.5 5.17 27.5 C 6.53 27.5 6.94 26.12 7.08 25.75 C 7.08 25.62 7.35 25.62 7.35 25.75 C 7.49 26.13 6.45 29.25 6.12 29.25 L 9.39 29.25 C 9.07 29.25 8.03 26.12 8.16 25.75 C 8.16 25.62 8.43 25.62 8.43 25.75 C 8.57 26.13 8.97 27.5 10.34 27.5 C 11.29 27.5 12.34 26.88 12.25 25.37 Z"
        fill="#000000"/>
    <path
        id="path_6"
        d="M 65.26 96.12 C 65.4 98.25 69.62 102.25 69.75 103.25 C 69.89 102.25 74.11 98.25 74.24 96.12 C 74.33 94.62 73.29 93.99 72.33 93.99 C 70.97 93.99 70.56 95.37 70.42 95.74 C 70.42 95.87 70.15 95.87 70.15 95.74 C 70.01 95.36 71.05 92.24 71.38 92.24 L 68.11 92.24 C 68.43 92.24 69.47 95.37 69.34 95.74 C 69.34 95.87 69.07 95.87 69.07 95.74 C 68.93 95.36 68.53 93.99 67.16 93.99 C 66.21 93.99 65.16 94.61 65.25 96.12 Z"
        fill="#000000"/>
    <path
        id="path_7"
        d="M 30.74 23.85 C 30.5 19.79 22.99 12.16 22.75 10.25 C 22.51 12.16 15 19.8 14.76 23.85 C 14.59 26.72 16.46 27.91 18.15 27.91 C 20.57 27.91 21.3 25.28 21.54 24.57 C 21.54 24.33 22.02 24.33 22.02 24.57 C 22.26 25.29 20.42 31.25 19.84 31.25 L 25.65 31.25 C 25.07 31.25 23.23 25.28 23.47 24.57 C 23.47 24.33 23.96 24.33 23.96 24.57 C 24.2 25.29 24.93 27.91 27.35 27.91 C 29.04 27.91 30.91 26.72 30.74 23.85 Z"
        fill="#000000"/>
    <path
        id="path_8"
        d="M 30.74 63.85 C 30.5 59.79 22.99 52.16 22.75 50.25 C 22.51 52.16 15 59.8 14.76 63.85 C 14.59 66.72 16.46 67.91 18.15 67.91 C 20.57 67.91 21.3 65.28 21.54 64.57 C 21.54 64.33 22.02 64.33 22.02 64.57 C 22.26 65.29 20.42 71.25 19.84 71.25 L 25.65 71.25 C 25.07 71.25 23.23 65.28 23.47 64.57 C 23.47 64.33 23.96 64.33 23.96 64.57 C 24.2 65.29 24.93 67.91 27.35 67.91 C 29.04 67.91 30.91 66.72 30.74 63.85 Z"
        fill="#000000"/>
    <path
        id="path_9"
        d="M 14.76 97.65 C 15 101.71 22.51 109.34 22.75 111.25 C 22.99 109.34 30.5 101.7 30.74 97.65 C 30.91 94.78 29.04 93.59 27.35 93.59 C 24.93 93.59 24.2 96.22 23.96 96.93 C 23.96 97.17 23.48 97.17 23.48 96.93 C 23.24 96.21 25.08 90.25 25.66 90.25 L 19.85 90.25 C 20.43 90.25 22.27 96.22 22.03 96.93 C 22.03 97.17 21.54 97.17 21.54 96.93 C 21.3 96.21 20.57 93.59 18.15 93.59 C 16.46 93.59 14.59 94.78 14.76 97.65 Z"
        fill="#000000"/>
    <path
        id="path_10"
        d="M 46.74 43.85 C 46.5 39.79 38.99 32.16 38.75 30.25 C 38.51 32.16 31 39.8 30.76 43.85 C 30.59 46.72 32.46 47.91 34.15 47.91 C 36.57 47.91 37.3 45.28 37.54 44.57 C 37.54 44.33 38.02 44.33 38.02 44.57 C 38.26 45.29 36.42 51.25 35.84 51.25 L 41.65 51.25 C 41.07 51.25 39.23 45.28 39.47 44.57 C 39.47 44.33 39.96 44.33 39.96 44.57 C 40.2 45.29 40.93 47.91 43.35 47.91 C 45.04 47.91 46.91 46.72 46.74 43.85 Z"
        fill="#000000"/>
    <path
        id="path_11"
        d="M 30.76 77.65 C 31 81.71 38.51 89.34 38.75 91.25 C 38.99 89.34 46.5 81.7 46.74 77.65 C 46.91 74.78 45.04 73.59 43.35 73.59 C 40.93 73.59 40.2 76.22 39.96 76.93 C 39.96 77.17 39.48 77.17 39.48 76.93 C 39.24 76.21 41.08 70.25 41.66 70.25 L 35.85 70.25 C 36.43 70.25 38.27 76.22 38.03 76.93 C 38.03 77.17 37.54 77.17 37.54 76.93 C 37.3 76.21 36.57 73.59 34.15 73.59 C 32.46 73.59 30.59 74.78 30.76 77.65 Z"
        fill="#000000"/>
    <path
        id="path_27"
        d="M 62.74 23.85 C 62.5 19.79 54.99 12.16 54.75 10.25 C 54.51 12.16 47 19.8 46.76 23.85 C 46.59 26.72 48.46 27.91 50.15 27.91 C 52.57 27.91 53.3 25.28 53.54 24.57 C 53.54 24.33 54.02 24.33 54.02 24.57 C 54.26 25.29 52.42 31.25 51.84 31.25 L 57.65 31.25 C 57.07 31.25 55.23 25.28 55.47 24.57 C 55.47 24.33 55.96 24.33 55.96 24.57 C 56.2 25.29 56.93 27.91 59.35 27.91 C 61.04 27.91 62.91 26.72 62.74 23.85 Z"
        fill="#000000"/>
    <path
        id="path_28"
        d="M 62.74 63.85 C 62.5 59.79 54.99 52.16 54.75 50.25 C 54.51 52.16 47 59.8 46.76 63.85 C 46.59 66.72 48.46 67.91 50.15 67.91 C 52.57 67.91 53.3 65.28 53.54 64.57 C 53.54 64.33 54.02 64.33 54.02 64.57 C 54.26 65.29 52.42 71.25 51.84 71.25 L 57.65 71.25 C 57.07 71.25 55.23 65.28 55.47 64.57 C 55.47 64.33 55.96 64.33 55.96 64.57 C 56.2 65.29 56.93 67.91 59.35 67.91 C 61.04 67.91 62.91 66.72 62.74 63.85 Z"
        fill="#000000"/>
    <path
        id="path_29"
        d="M 46.76 97.65 C 47 101.71 54.51 109.34 54.75 111.25 C 54.99 109.34 62.5 101.7 62.74 97.65 C 62.91 94.78 61.04 93.59 59.35 93.59 C 56.93 93.59 56.2 96.22 55.96 96.93 C 55.96 97.17 55.48 97.17 55.48 96.93 C 55.24 96.21 57.08 90.25 57.66 90.25 L 51.85 90.25 C 52.43 90.25 54.27 96.22 54.03 96.93 C 54.03 97.17 53.54 97.17 53.54 96.93 C 53.3 96.21 52.57 93.59 50.15 93.59 C 48.46 93.59 46.59 94.78 46.76 97.65 Z"
        fill="#000000"/>
</svg>
