<svg
    xmlns="http://www.w3.org/2000/svg"
    viewBox="0 0 77 121"
    id="vector">
    <path
        id="path"
        d="M 77.5 116.5 C 77.5 119.26 75.26 121.5 72.5 121.5 L 5 121.5 C 2.24 121.5 0 119.26 0 116.5 L 0 5 C 0 2.24 2.24 0 5 0 L 72.5 0 C 75.26 0 77.5 2.24 77.5 5 L 77.5 116.5 Z"
        fill="none"
        stroke="#000000"
        stroke-width="1.5"/>
    <path
        id="path_1"
        d="M 4 6.25 L 4 4 L 10.75 4 L 10.75 4.75 L 5.75 10 C 5.75 10 6.75 9.5 8.25 9.5 C 9.75 9.5 11.5 10.75 11.5 12.75 C 11.5 14.75 10 16.5 7.75 16.5 C 6 16.5 4.5 15.5 4 14"
        fill="#00000000"
        stroke="#ffffff"
        stroke-width="1"/>
    <path
        id="path_2"
        d="M 73.5 115.25 L 73.5 117.5 L 66.75 117.5 L 66.75 116.75 L 71.75 111.5 C 71.75 111.5 70.75 112 69.25 112 C 67.75 112 66 110.75 66 108.75 C 66 106.75 67.5 105 69.75 105 C 71.5 105 73 106 73.5 107.5"
        fill="#00000000"
        stroke="#ffffff"
        stroke-width="1"/>
    <path
        id="path_3"
        d="M 8.89 23.29 C 8.89 23.29 10.14 22.29 10.14 20.9 C 10.14 20.09 9.42 18.74 7.75 18.74 C 6.08 18.74 5.36 20.09 5.36 20.9 C 5.36 22.29 6.61 23.29 6.61 23.29 C 5.22 22.21 2.75 22.95 2.75 25.11 C 2.75 26.19 3.63 27.38 5.02 27.38 C 6.69 27.38 7.41 25.56 7.41 25.56 C 7.41 25.56 7.62 27.63 6.39 28.74 L 9.12 28.74 C 7.89 27.63 8.1 25.56 8.1 25.56 C 8.1 25.56 8.82 27.38 10.49 27.38 C 11.88 27.38 12.76 26.19 12.76 25.11 C 12.76 22.95 10.28 22.21 8.9 23.29 Z"
        fill="#ffffff"/>
    <path
        id="path_4"
        d="M 68.61 98.2 C 68.61 98.2 67.36 99.2 67.36 100.59 C 67.36 101.4 68.08 102.75 69.75 102.75 C 71.42 102.75 72.14 101.4 72.14 100.59 C 72.14 99.2 70.89 98.2 70.89 98.2 C 72.28 99.28 74.75 98.54 74.75 96.38 C 74.75 95.3 73.87 94.11 72.48 94.11 C 70.81 94.11 70.09 95.93 70.09 95.93 C 70.09 95.93 69.88 93.86 71.11 92.75 L 68.38 92.75 C 69.61 93.86 69.4 95.93 69.4 95.93 C 69.4 95.93 68.68 94.11 67.01 94.11 C 65.62 94.11 64.74 95.3 64.74 96.38 C 64.74 98.54 67.22 99.28 68.6 98.2 Z"
        fill="#ffffff"/>
    <path
        id="path_5"
        d="M 40.91 19.89 C 40.91 19.89 43.29 17.99 43.29 15.36 C 43.29 13.82 41.92 11.26 38.76 11.26 C 35.6 11.26 34.23 13.82 34.23 15.36 C 34.23 17.99 36.61 19.89 36.61 19.89 C 33.97 17.83 29.27 19.24 29.27 23.34 C 29.27 25.4 30.95 27.66 33.59 27.66 C 36.75 27.66 38.12 24.21 38.12 24.21 C 38.12 24.21 38.52 28.15 36.18 30.26 L 41.36 30.26 C 39.01 28.15 39.42 24.21 39.42 24.21 C 39.42 24.21 40.79 27.66 43.95 27.66 C 46.59 27.66 48.27 25.4 48.27 23.34 C 48.27 19.23 43.57 17.83 40.93 19.89 Z"
        fill="#ffffff"/>
    <path
        id="path_6"
        d="M 40.91 59.89 C 40.91 59.89 43.29 57.99 43.29 55.36 C 43.29 53.82 41.92 51.26 38.76 51.26 C 35.6 51.26 34.23 53.82 34.23 55.36 C 34.23 57.99 36.61 59.89 36.61 59.89 C 33.97 57.83 29.27 59.24 29.27 63.34 C 29.27 65.4 30.95 67.66 33.59 67.66 C 36.75 67.66 38.12 64.21 38.12 64.21 C 38.12 64.21 38.52 68.15 36.18 70.26 L 41.36 70.26 C 39.01 68.15 39.42 64.21 39.42 64.21 C 39.42 64.21 40.79 67.66 43.95 67.66 C 46.59 67.66 48.27 65.4 48.27 63.34 C 48.27 59.23 43.57 57.83 40.93 59.89 Z"
        fill="#ffffff"/>
    <path
        id="path_7"
        d="M 36.59 101.61 C 36.59 101.61 34.21 103.51 34.21 106.14 C 34.21 107.68 35.58 110.24 38.74 110.24 C 41.9 110.24 43.27 107.68 43.27 106.14 C 43.27 103.51 40.89 101.61 40.89 101.61 C 43.53 103.67 48.23 102.26 48.23 98.16 C 48.23 96.1 46.55 93.84 43.91 93.84 C 40.75 93.84 39.38 97.29 39.38 97.29 C 39.38 97.29 38.98 93.35 41.32 91.24 L 36.14 91.24 C 38.49 93.35 38.08 97.29 38.08 97.29 C 38.08 97.29 36.71 93.84 33.55 93.84 C 30.91 93.84 29.23 96.1 29.23 98.16 C 29.23 102.27 33.93 103.67 36.57 101.61 Z"
        fill="#ffffff"/>
</svg>
