<svg
    xmlns="http://www.w3.org/2000/svg"
    viewBox="0 0 77 121"
    id="vector">
    <path
        id="path"
        d="M 77.5 116.5 C 77.5 119.26 75.26 121.5 72.5 121.5 L 5 121.5 C 2.24 121.5 0 119.26 0 116.5 L 0 5 C 0 2.24 2.24 0 5 0 L 72.5 0 C 75.26 0 77.5 2.24 77.5 5 L 77.5 116.5 Z"
        fill="none"
        stroke="#000000"
        stroke-width="1.5"/>
    <path
        id="path_1"
        d="M 11 12.75 C 11 11.888 10.657 11.061 10.048 10.452 C 9.439 9.843 8.612 9.5 7.75 9.5 C 6.888 9.5 6.061 9.843 5.452 10.452 C 4.843 11.061 4.5 11.888 4.5 12.75 C 4.5 13.612 4.843 14.439 5.452 15.048 C 6.061 15.657 6.888 16 7.75 16 C 8.612 16 9.439 15.657 10.048 15.048 C 10.657 14.439 11 13.612 11 12.75"
        fill="#00000000"
        stroke="#df0000"
        stroke-width="1"/>
    <path
        id="path_2"
        d="M 4.5 12.75 L 4.5 7.25 C 4.5 7.25 4.25 4 7.73 4 C 8.81 4 10.53 4.5 10.75 6.25"
        fill="#00000000"
        stroke="#df0000"
        stroke-width="1"/>
    <path
        id="path_3"
        d="M 73 108.75 L 73 114.25 C 73 114.25 73.25 117.5 69.77 117.5 C 68.69 117.5 66.97 117 66.75 115.25"
        fill="#00000000"
        stroke="#df0000"
        stroke-width="1"/>
    <path
        id="path_4"
        d="M 73 108.75 C 73 107.888 72.657 107.061 72.048 106.452 C 71.439 105.843 70.612 105.5 69.75 105.5 C 68.888 105.5 68.061 105.843 67.452 106.452 C 66.843 107.061 66.5 107.888 66.5 108.75 C 66.5 109.612 66.843 110.439 67.452 111.048 C 68.061 111.657 68.888 112 69.75 112 C 70.612 112 71.439 111.657 72.048 111.048 C 72.657 110.439 73 109.612 73 108.75"
        fill="#00000000"
        stroke="#df0000"
        stroke-width="1"/>
    <path
        id="path_5"
        d="M 9.73 21.12 C 8.54 19.62 7.74 18.24 7.74 18.24 C 7.74 18.24 6.95 19.62 5.75 21.12 C 4.55 22.62 3.23 23.75 3.23 23.75 C 3.23 23.75 4.55 24.88 5.75 26.38 C 6.95 27.88 7.74 29.26 7.74 29.26 C 7.74 29.26 8.53 27.88 9.73 26.38 C 10.93 24.88 12.25 23.75 12.25 23.75 C 12.25 23.75 10.93 22.62 9.73 21.12 Z"
        fill="#df0000"/>
    <path
        id="path_6"
        d="M 71.73 95.12 C 70.54 93.62 69.74 92.24 69.74 92.24 C 69.74 92.24 68.95 93.62 67.75 95.12 C 66.55 96.62 65.23 97.75 65.23 97.75 C 65.23 97.75 66.55 98.88 67.75 100.38 C 68.95 101.88 69.74 103.26 69.74 103.26 C 69.74 103.26 70.53 101.88 71.73 100.38 C 72.93 98.88 74.25 97.75 74.25 97.75 C 74.25 97.75 72.93 96.62 71.73 95.12 Z"
        fill="#df0000"/>
    <path
        id="path_7"
        d="M 26.28 15.74 C 24.16 12.88 22.75 10.25 22.75 10.25 C 22.75 10.25 21.34 12.88 19.22 15.74 C 17.1 18.6 14.75 20.75 14.75 20.75 C 14.75 20.75 17.1 22.9 19.22 25.76 C 21.34 28.62 22.75 31.25 22.75 31.25 C 22.75 31.25 24.16 28.62 26.28 25.76 C 28.4 22.9 30.75 20.75 30.75 20.75 C 30.75 20.75 28.4 18.6 26.28 15.74 Z"
        fill="#df0000"/>
    <path
        id="path_8"
        d="M 26.28 55.74 C 24.16 52.88 22.75 50.25 22.75 50.25 C 22.75 50.25 21.34 52.88 19.22 55.74 C 17.1 58.6 14.75 60.75 14.75 60.75 C 14.75 60.75 17.1 62.9 19.22 65.76 C 21.34 68.62 22.75 71.25 22.75 71.25 C 22.75 71.25 24.16 68.62 26.28 65.76 C 28.4 62.9 30.75 60.75 30.75 60.75 C 30.75 60.75 28.4 58.6 26.28 55.74 Z"
        fill="#df0000"/>
    <path
        id="path_9"
        d="M 26.28 95.74 C 24.16 92.88 22.75 90.25 22.75 90.25 C 22.75 90.25 21.34 92.88 19.22 95.74 C 17.1 98.6 14.75 100.75 14.75 100.75 C 14.75 100.75 17.1 102.9 19.22 105.76 C 21.34 108.62 22.75 111.25 22.75 111.25 C 22.75 111.25 24.16 108.62 26.28 105.76 C 28.4 102.9 30.75 100.75 30.75 100.75 C 30.75 100.75 28.4 98.6 26.28 95.74 Z"
        fill="#df0000"/>
    <path
        id="path_10"
        d="M 58.28 15.74 C 56.16 12.88 54.75 10.25 54.75 10.25 C 54.75 10.25 53.34 12.88 51.22 15.74 C 49.1 18.6 46.75 20.75 46.75 20.75 C 46.75 20.75 49.1 22.9 51.22 25.76 C 53.34 28.62 54.75 31.25 54.75 31.25 C 54.75 31.25 56.16 28.62 58.28 25.76 C 60.4 22.9 62.75 20.75 62.75 20.75 C 62.75 20.75 60.4 18.6 58.28 15.74 Z"
        fill="#df0000"/>
    <path
        id="path_11"
        d="M 58.28 55.74 C 56.16 52.88 54.75 50.25 54.75 50.25 C 54.75 50.25 53.34 52.88 51.22 55.74 C 49.1 58.6 46.75 60.75 46.75 60.75 C 46.75 60.75 49.1 62.9 51.22 65.76 C 53.34 68.62 54.75 71.25 54.75 71.25 C 54.75 71.25 56.16 68.62 58.28 65.76 C 60.4 62.9 62.75 60.75 62.75 60.75 C 62.75 60.75 60.4 58.6 58.28 55.74 Z"
        fill="#df0000"/>
    <path
        id="path_24"
        d="M 58.28 95.74 C 56.16 92.88 54.75 90.25 54.75 90.25 C 54.75 90.25 53.34 92.88 51.22 95.74 C 49.1 98.6 46.75 100.75 46.75 100.75 C 46.75 100.75 49.1 102.9 51.22 105.76 C 53.34 108.62 54.75 111.25 54.75 111.25 C 54.75 111.25 56.16 108.62 58.28 105.76 C 60.4 102.9 62.75 100.75 62.75 100.75 C 62.75 100.75 60.4 98.6 58.28 95.74 Z"
        fill="#df0000"/>
</svg>
