<?xml version="1.0" encoding="utf-8"?>
<svg viewBox="258.627 67.884 15.999 21.001" xmlns="http://www.w3.org/2000/svg">
  <path d="m7.989,3.103c-.242-4.057-7.747-11.693-7.989-13.603-.242,1.909-7.747,9.545-7.989,13.603-.169,2.868 1.695,4.057 3.39,4.057 2.421,0 3.147-2.625 3.389-3.341 0-.239.484-.239.484,0 .242.716-1.603,6.682-2.179,6.682h5.811c-.576,0-2.421-5.966-2.179-6.682 0-.239.485-.239.485,0 .242.716.968,3.341 3.389,3.341 1.694-.001 3.557-1.189 3.388-4.057z" transform="matrix(1, 0, 0, 1, 266.627075, 78.384308)"/>
</svg>