<svg
    xmlns="http://www.w3.org/2000/svg"
    viewBox="0 0 77 121"
    id="vector">
    <path
        id="path"
        d="M 77.5 116.5 C 77.5 119.26 75.26 121.5 72.5 121.5 L 5 121.5 C 2.24 121.5 0 119.26 0 116.5 L 0 5 C 0 2.24 2.24 0 5 0 L 72.5 0 C 75.26 0 77.5 2.24 77.5 5 L 77.5 116.5 Z"
        fill="none"
        stroke="#000000"
        stroke-width="1.5"/>
    <path
        id="path_1"
        d="M 3.25 16.5 L 6.75 16.5"
        fill="#00000000"
        stroke="#000000"
        stroke-width="1"/>
    <path
        id="path_2"
        d="M 12.25 16.5 L 8.75 16.5"
        fill="#00000000"
        stroke="#000000"
        stroke-width="1"/>
    <path
        id="path_3"
        d="M 4.75 16.5 L 7.75 3.25 L 10.75 16.5"
        fill="#00000000"
        stroke="#000000"
        stroke-width="1"/>
    <path
        id="path_4"
        d="M 5.5 13.25 L 10 13.25"
        fill="#00000000"
        stroke="#000000"
        stroke-width="1"/>
    <path
        id="path_5"
        d="M 72 108.25 L 67.5 108.25"
        fill="#00000000"
        stroke="#000000"
        stroke-width="1"/>
    <path
        id="path_6"
        d="M 74.25 105 L 70.75 105"
        fill="#00000000"
        stroke="#000000"
        stroke-width="1"/>
    <path
        id="path_7"
        d="M 65.25 105 L 68.75 105"
        fill="#00000000"
        stroke="#000000"
        stroke-width="1"/>
    <path
        id="path_8"
        d="M 72.75 105 L 69.75 118.25 L 66.75 105"
        fill="#00000000"
        stroke="#000000"
        stroke-width="1"/>
    <path
        id="path_9"
        d="M 8.89 23.29 C 8.89 23.29 10.14 22.29 10.14 20.9 C 10.14 20.09 9.42 18.74 7.75 18.74 C 6.08 18.74 5.36 20.09 5.36 20.9 C 5.36 22.29 6.61 23.29 6.61 23.29 C 5.22 22.21 2.75 22.95 2.75 25.11 C 2.75 26.19 3.63 27.38 5.02 27.38 C 6.69 27.38 7.41 25.56 7.41 25.56 C 7.41 25.56 7.62 27.63 6.39 28.74 L 9.12 28.74 C 7.89 27.63 8.1 25.56 8.1 25.56 C 8.1 25.56 8.82 27.38 10.49 27.38 C 11.88 27.38 12.76 26.19 12.76 25.11 C 12.76 22.95 10.28 22.21 8.9 23.29 Z"
        fill="#000000"/>
    <path
        id="path_10"
        d="M 68.61 98.2 C 68.61 98.2 67.36 99.2 67.36 100.59 C 67.36 101.4 68.08 102.75 69.75 102.75 C 71.42 102.75 72.14 101.4 72.14 100.59 C 72.14 99.2 70.89 98.2 70.89 98.2 C 72.28 99.28 74.75 98.54 74.75 96.38 C 74.75 95.3 73.87 94.11 72.48 94.11 C 70.81 94.11 70.09 95.93 70.09 95.93 C 70.09 95.93 69.88 93.86 71.11 92.75 L 68.38 92.75 C 69.61 93.86 69.4 95.93 69.4 95.93 C 69.4 95.93 68.68 94.11 67.01 94.11 C 65.62 94.11 64.74 95.3 64.74 96.38 C 64.74 98.54 67.22 99.28 68.6 98.2 Z"
        fill="#000000"/>
    <path
        id="path_11"
        d="M 40.91 59.89 C 40.91 59.89 43.29 57.99 43.29 55.36 C 43.29 53.82 41.92 51.26 38.76 51.26 C 35.6 51.26 34.23 53.82 34.23 55.36 C 34.23 57.99 36.61 59.89 36.61 59.89 C 33.97 57.83 29.27 59.24 29.27 63.34 C 29.27 65.4 30.95 67.66 33.59 67.66 C 36.75 67.66 38.12 64.21 38.12 64.21 C 38.12 64.21 38.52 68.15 36.18 70.26 L 41.36 70.26 C 39.01 68.15 39.42 64.21 39.42 64.21 C 39.42 64.21 40.79 67.66 43.95 67.66 C 46.59 67.66 48.27 65.4 48.27 63.34 C 48.27 59.23 43.57 57.83 40.93 59.89 Z"
        fill="#000000"/>
</svg>
