<svg
    xmlns="http://www.w3.org/2000/svg"
    viewBox="0 0 77 121"
    id="vector">
    <path
        id="path"
        d="M 77.5 116.5 C 77.5 119.26 75.26 121.5 72.5 121.5 L 5 121.5 C 2.24 121.5 0 119.26 0 116.5 L 0 5 C 0 2.24 2.24 0 5 0 L 72.5 0 C 75.26 0 77.5 2.24 77.5 5 L 77.5 116.5 Z"
        fill="none"
        stroke="#000000"
        stroke-width="1.5"/>
    <path
        id="path_1"
        d="M 11.5 4 L 4.5 4 L 4.5 9.25 L 5.2 9.5 C 5.2 9.5 5.67 8 8 8 C 10.33 8 11.27 10.25 11.27 12.5 C 11.27 14.75 9.87 16.5 7.77 16.5 C 5.67 16.5 4.74 15 4.5 14.25"
        fill="#00000000"
        stroke="#df0000"
        stroke-width="1"/>
    <path
        id="path_2"
        d="M 66 117.5 L 73 117.5 L 73 112.25 L 72.3 112 C 72.3 112 71.83 113.5 69.5 113.5 C 67.17 113.5 66.23 111.25 66.23 109 C 66.23 106.75 67.63 105 69.73 105 C 71.83 105 72.76 106.5 73 107.25"
        fill="#00000000"
        stroke="#df0000"
        stroke-width="1"/>
    <path
        id="path_3"
        d="M 9.73 21.12 C 8.54 19.62 7.74 18.24 7.74 18.24 C 7.74 18.24 6.95 19.62 5.75 21.12 C 4.55 22.62 3.23 23.75 3.23 23.75 C 3.23 23.75 4.55 24.88 5.75 26.38 C 6.95 27.88 7.74 29.26 7.74 29.26 C 7.74 29.26 8.53 27.88 9.73 26.38 C 10.93 24.88 12.25 23.75 12.25 23.75 C 12.25 23.75 10.93 22.62 9.73 21.12 Z"
        fill="#df0000"/>
    <path
        id="path_4"
        d="M 71.74 95.12 C 70.55 93.62 69.75 92.24 69.75 92.24 C 69.75 92.24 68.96 93.62 67.76 95.12 C 66.56 96.62 65.24 97.75 65.24 97.75 C 65.24 97.75 66.56 98.88 67.76 100.38 C 68.96 101.88 69.75 103.26 69.75 103.26 C 69.75 103.26 70.54 101.88 71.74 100.38 C 72.94 98.88 74.26 97.75 74.26 97.75 C 74.26 97.75 72.94 96.62 71.74 95.12 Z"
        fill="#df0000"/>
    <path
        id="path_5"
        d="M 26.28 15.74 C 24.16 12.88 22.75 10.25 22.75 10.25 C 22.75 10.25 21.34 12.88 19.22 15.74 C 17.1 18.6 14.75 20.75 14.75 20.75 C 14.75 20.75 17.1 22.9 19.22 25.76 C 21.34 28.62 22.75 31.25 22.75 31.25 C 22.75 31.25 24.16 28.62 26.28 25.76 C 28.4 22.9 30.75 20.75 30.75 20.75 C 30.75 20.75 28.4 18.6 26.28 15.74 Z"
        fill="#df0000"/>
    <path
        id="path_6"
        d="M 26.28 95.74 C 24.16 92.88 22.75 90.25 22.75 90.25 C 22.75 90.25 21.34 92.88 19.22 95.74 C 17.1 98.6 14.75 100.75 14.75 100.75 C 14.75 100.75 17.1 102.9 19.22 105.76 C 21.34 108.62 22.75 111.25 22.75 111.25 C 22.75 111.25 24.16 108.62 26.28 105.76 C 28.4 102.9 30.75 100.75 30.75 100.75 C 30.75 100.75 28.4 98.6 26.28 95.74 Z"
        fill="#df0000"/>
    <path
        id="path_7"
        d="M 42.28 55.74 C 40.16 52.88 38.75 50.25 38.75 50.25 C 38.75 50.25 37.34 52.88 35.22 55.74 C 33.1 58.6 30.75 60.75 30.75 60.75 C 30.75 60.75 33.1 62.9 35.22 65.76 C 37.34 68.62 38.75 71.25 38.75 71.25 C 38.75 71.25 40.16 68.62 42.28 65.76 C 44.4 62.9 46.75 60.75 46.75 60.75 C 46.75 60.75 44.4 58.6 42.28 55.74 Z"
        fill="#df0000"/>
    <path
        id="path_8"
        d="M 58.28 15.74 C 56.16 12.88 54.75 10.25 54.75 10.25 C 54.75 10.25 53.34 12.88 51.22 15.74 C 49.1 18.6 46.75 20.75 46.75 20.75 C 46.75 20.75 49.1 22.9 51.22 25.76 C 53.34 28.62 54.75 31.25 54.75 31.25 C 54.75 31.25 56.16 28.62 58.28 25.76 C 60.4 22.9 62.75 20.75 62.75 20.75 C 62.75 20.75 60.4 18.6 58.28 15.74 Z"
        fill="#df0000"/>
    <path
        id="path_9"
        d="M 58.28 95.74 C 56.16 92.88 54.75 90.25 54.75 90.25 C 54.75 90.25 53.34 92.88 51.22 95.74 C 49.1 98.6 46.75 100.75 46.75 100.75 C 46.75 100.75 49.1 102.9 51.22 105.76 C 53.34 108.62 54.75 111.25 54.75 111.25 C 54.75 111.25 56.16 108.62 58.28 105.76 C 60.4 102.9 62.75 100.75 62.75 100.75 C 62.75 100.75 60.4 98.6 58.28 95.74 Z"
        fill="#df0000"/>
</svg>
