<svg
    xmlns="http://www.w3.org/2000/svg"
    viewBox="0 0 77 121"
    id="vector">
    <path
        id="path"
        d="M 77.5 116.5 C 77.5 119.26 75.26 121.5 72.5 121.5 L 5 121.5 C 2.24 121.5 0 119.26 0 116.5 L 0 5 C 0 2.24 2.24 0 5 0 L 72.5 0 C 75.26 0 77.5 2.24 77.5 5 L 77.5 116.5 Z"
        fill="none"
        stroke="#000000"
        stroke-width="1.5"/>
    <path
        id="path_1"
        d="M 8.25 16.5 L 12.25 16.5"
        fill="#00000000"
        stroke="#000000"
        stroke-width="1"/>
    <path
        id="path_2"
        d="M 10.25 16.5 L 10.25 4 L 9.5 4 L 4 13 L 4 13.5 L 12.25 13.5"
        fill="#00000000"
        stroke="#000000"
        stroke-width="1"/>
    <path
        id="path_3"
        d="M 67.25 105 L 67.25 117.5 L 68 117.5 L 73.5 108.5 L 73.5 108 L 65.25 108"
        fill="#00000000"
        stroke="#000000"
        stroke-width="1"/>
    <path
        id="path_4"
        d="M 69.25 105 L 65.25 105"
        fill="#00000000"
        stroke="#000000"
        stroke-width="1"/>
    <path
        id="path_5"
        d="M 12.24 25.37 C 12.1 23.24 7.88 19.24 7.75 18.24 C 7.61 19.24 3.39 23.24 3.26 25.37 C 3.17 26.87 4.21 27.5 5.17 27.5 C 6.53 27.5 6.94 26.12 7.08 25.75 C 7.08 25.62 7.35 25.62 7.35 25.75 C 7.49 26.13 6.45 29.25 6.12 29.25 L 9.39 29.25 C 9.07 29.25 8.03 26.12 8.16 25.75 C 8.16 25.62 8.43 25.62 8.43 25.75 C 8.57 26.13 8.97 27.5 10.34 27.5 C 11.29 27.5 12.34 26.88 12.25 25.37 Z"
        fill="#000000"/>
    <path
        id="path_6"
        d="M 65.26 96.12 C 65.4 98.25 69.62 102.25 69.75 103.25 C 69.89 102.25 74.11 98.25 74.24 96.12 C 74.33 94.62 73.29 93.99 72.33 93.99 C 70.97 93.99 70.56 95.37 70.42 95.74 C 70.42 95.87 70.15 95.87 70.15 95.74 C 70.01 95.36 71.05 92.24 71.38 92.24 L 68.11 92.24 C 68.43 92.24 69.47 95.37 69.34 95.74 C 69.34 95.87 69.07 95.87 69.07 95.74 C 68.93 95.36 68.53 93.99 67.16 93.99 C 66.21 93.99 65.16 94.61 65.25 96.12 Z"
        fill="#000000"/>
    <path
        id="path_7"
        d="M 30.74 23.85 C 30.5 19.79 22.99 12.16 22.75 10.25 C 22.51 12.16 15 19.8 14.76 23.85 C 14.59 26.72 16.46 27.91 18.15 27.91 C 20.57 27.91 21.3 25.28 21.54 24.57 C 21.54 24.33 22.02 24.33 22.02 24.57 C 22.26 25.29 20.42 31.25 19.84 31.25 L 25.65 31.25 C 25.07 31.25 23.23 25.28 23.47 24.57 C 23.47 24.33 23.96 24.33 23.96 24.57 C 24.2 25.29 24.93 27.91 27.35 27.91 C 29.04 27.91 30.91 26.72 30.74 23.85 Z"
        fill="#000000"/>
    <path
        id="path_8"
        d="M 14.76 97.65 C 15 101.71 22.51 109.34 22.75 111.25 C 22.99 109.34 30.5 101.7 30.74 97.65 C 30.91 94.78 29.04 93.59 27.35 93.59 C 24.93 93.59 24.2 96.22 23.96 96.93 C 23.96 97.17 23.48 97.17 23.48 96.93 C 23.24 96.21 25.08 90.25 25.66 90.25 L 19.85 90.25 C 20.43 90.25 22.27 96.22 22.03 96.93 C 22.03 97.17 21.54 97.17 21.54 96.93 C 21.3 96.21 20.57 93.59 18.15 93.59 C 16.46 93.59 14.59 94.78 14.76 97.65 Z"
        fill="#000000"/>
    <path
        id="path_9"
        d="M 62.74 23.85 C 62.5 19.79 54.99 12.16 54.75 10.25 C 54.51 12.16 47 19.8 46.76 23.85 C 46.59 26.72 48.46 27.91 50.15 27.91 C 52.57 27.91 53.3 25.28 53.54 24.57 C 53.54 24.33 54.02 24.33 54.02 24.57 C 54.26 25.29 52.42 31.25 51.84 31.25 L 57.65 31.25 C 57.07 31.25 55.23 25.28 55.47 24.57 C 55.47 24.33 55.96 24.33 55.96 24.57 C 56.2 25.29 56.93 27.91 59.35 27.91 C 61.04 27.91 62.91 26.72 62.74 23.85 Z"
        fill="#000000"/>
    <path
        id="path_20"
        d="M 46.76 97.65 C 47 101.71 54.51 109.34 54.75 111.25 C 54.99 109.34 62.5 101.7 62.74 97.65 C 62.91 94.78 61.04 93.59 59.35 93.59 C 56.93 93.59 56.2 96.22 55.96 96.93 C 55.96 97.17 55.48 97.17 55.48 96.93 C 55.24 96.21 57.08 90.25 57.66 90.25 L 51.85 90.25 C 52.43 90.25 54.27 96.22 54.03 96.93 C 54.03 97.17 53.54 97.17 53.54 96.93 C 53.3 96.21 52.57 93.59 50.15 93.59 C 48.46 93.59 46.59 94.78 46.76 97.65 Z"
        fill="#000000"/>
</svg>
