<svg
    xmlns="http://www.w3.org/2000/svg"
    viewBox="0 0 77 121"
    id="vector">
    <path
        id="path_10"
        d="M 77.5 116.5 C 77.5 119.26 75.26 121.5 72.5 121.5 L 5 121.5 C 2.24 121.5 0 119.26 0 116.5 L 0 5 C 0 2.24 2.24 0 5 0 L 72.5 0 C 75.26 0 77.5 2.24 77.5 5 L 77.5 116.5 Z"
        fill="none"
        stroke="#000000"
        stroke-width="1.5"/>
    <path
        id="path_11"
        d="M 11.5 4 L 4.5 4 L 4.5 9.25 L 5.2 9.5 C 5.2 9.5 5.67 8 8 8 C 10.33 8 11.27 10.25 11.27 12.5 C 11.27 14.75 9.87 16.5 7.77 16.5 C 5.67 16.5 4.74 15 4.5 14.25"
        fill="#00000000"
        stroke="#df0000"
        stroke-width="1"/>
    <path
        id="path_12"
        d="M 66 117.5 L 73 117.5 L 73 112.25 L 72.3 112 C 72.3 112 71.83 113.5 69.5 113.5 C 67.17 113.5 66.23 111.25 66.23 109 C 66.23 106.75 67.63 105 69.73 105 C 71.83 105 72.76 106.5 73 107.25"
        fill="#00000000"
        stroke="#df0000"
        stroke-width="1"/>
    <path
        id="path_13"
        d="M 9.82 18.75 C 8 18.75 7.75 20.68 7.75 20.68 C 7.75 20.68 7.51 18.75 5.68 18.75 C 4.4 18.75 3.25 19.62 3.25 21.25 C 3.25 23.41 7.3 27.19 7.75 28.75 C 8.21 27.19 12.25 23.41 12.25 21.25 C 12.25 19.62 11.1 18.75 9.82 18.75 Z"
        fill="#df0000"/>
    <path
        id="path_14"
        d="M 67.68 102.75 C 69.5 102.75 69.75 100.82 69.75 100.82 C 69.75 100.82 69.99 102.75 71.82 102.75 C 73.1 102.75 74.25 101.88 74.25 100.25 C 74.25 98.09 70.2 94.31 69.75 92.75 C 69.29 94.31 65.25 98.09 65.25 100.25 C 65.25 101.88 66.4 102.75 67.68 102.75 Z"
        fill="#df0000"/>
    <path
        id="path_15"
        d="M 26.43 11.75 C 23.19 11.75 22.75 15.23 22.75 15.23 C 22.75 15.23 22.32 11.75 19.07 11.75 C 16.8 11.75 14.75 13.31 14.75 16.25 C 14.75 20.14 21.94 26.94 22.75 29.75 C 23.56 26.94 30.75 20.14 30.75 16.25 C 30.75 13.31 28.7 11.75 26.43 11.75 Z"
        fill="#df0000"/>
    <path
        id="path_16"
        d="M 19.07 109.75 C 22.31 109.75 22.75 106.27 22.75 106.27 C 22.75 106.27 23.18 109.75 26.43 109.75 C 28.7 109.75 30.75 108.19 30.75 105.25 C 30.75 101.36 23.56 94.56 22.75 91.75 C 21.94 94.56 14.75 101.36 14.75 105.25 C 14.75 108.19 16.8 109.75 19.07 109.75 Z"
        fill="#df0000"/>
    <path
        id="path_17"
        d="M 42.43 51.75 C 39.19 51.75 38.75 55.23 38.75 55.23 C 38.75 55.23 38.32 51.75 35.07 51.75 C 32.8 51.75 30.75 53.31 30.75 56.25 C 30.75 60.14 37.94 66.94 38.75 69.75 C 39.56 66.94 46.75 60.14 46.75 56.25 C 46.75 53.31 44.7 51.75 42.43 51.75 Z"
        fill="#df0000"/>
    <path
        id="path_18"
        d="M 58.43 11.75 C 55.19 11.75 54.75 15.23 54.75 15.23 C 54.75 15.23 54.32 11.75 51.07 11.75 C 48.8 11.75 46.75 13.31 46.75 16.25 C 46.75 20.14 53.94 26.94 54.75 29.75 C 55.56 26.94 62.75 20.14 62.75 16.25 C 62.75 13.31 60.7 11.75 58.43 11.75 Z"
        fill="#df0000"/>
    <path
        id="path_19"
        d="M 51.07 109.75 C 54.31 109.75 54.75 106.27 54.75 106.27 C 54.75 106.27 55.18 109.75 58.43 109.75 C 60.7 109.75 62.75 108.19 62.75 105.25 C 62.75 101.36 55.56 94.56 54.75 91.75 C 53.94 94.56 46.75 101.36 46.75 105.25 C 46.75 108.19 48.8 109.75 51.07 109.75 Z"
        fill="#df0000"/>
</svg>
