<svg
    xmlns="http://www.w3.org/2000/svg"
    viewBox="0 0 77 121"
    id="vector">
    <path
        id="path"
        d="M 77.5 116.5 C 77.5 119.26 75.26 121.5 72.5 121.5 L 5 121.5 C 2.24 121.5 0 119.26 0 116.5 L 0 5 C 0 2.24 2.24 0 5 0 L 72.5 0 C 75.26 0 77.5 2.24 77.5 5 L 77.5 116.5 Z"
        fill="none"
        stroke="#000000"
        stroke-width="1.5"/>
    <path
        id="path_1"
        d="M 11.25 13 C 11.25 12.072 10.881 11.181 10.225 10.525 C 9.569 9.869 8.678 9.5 7.75 9.5 C 6.822 9.5 5.931 9.869 5.275 10.525 C 4.619 11.181 4.25 12.072 4.25 13 C 4.25 13.928 4.619 14.819 5.275 15.475 C 5.931 16.131 6.822 16.5 7.75 16.5 C 8.678 16.5 9.569 16.131 10.225 15.475 C 10.881 14.819 11.25 13.928 11.25 13"
        fill="#00000000"
        stroke="#df0000"
        stroke-width="1"/>
    <path
        id="path_2"
        d="M 10.75 6.5 C 10.75 5.705 10.434 4.941 9.871 4.379 C 9.309 3.816 8.545 3.5 7.75 3.5 C 6.955 3.5 6.191 3.816 5.629 4.379 C 5.066 4.941 4.75 5.705 4.75 6.5 C 4.75 7.295 5.066 8.059 5.629 8.621 C 6.191 9.184 6.955 9.5 7.75 9.5 C 8.545 9.5 9.309 9.184 9.871 8.621 C 10.434 8.059 10.75 7.295 10.75 6.5"
        fill="#00000000"
        stroke="#df0000"
        stroke-width="1"/>
    <path
        id="path_3"
        d="M 72.75 115 C 72.75 114.205 72.434 113.441 71.871 112.879 C 71.309 112.316 70.545 112 69.75 112 C 68.955 112 68.191 112.316 67.629 112.879 C 67.066 113.441 66.75 114.205 66.75 115 C 66.75 115.795 67.066 116.559 67.629 117.121 C 68.191 117.684 68.955 118 69.75 118 C 70.545 118 71.309 117.684 71.871 117.121 C 72.434 116.559 72.75 115.795 72.75 115"
        fill="#00000000"
        stroke="#df0000"
        stroke-width="1"/>
    <path
        id="path_4"
        d="M 73.25 108.5 C 73.25 107.572 72.881 106.681 72.225 106.025 C 71.569 105.369 70.678 105 69.75 105 C 68.822 105 67.931 105.369 67.275 106.025 C 66.619 106.681 66.25 107.572 66.25 108.5 C 66.25 109.428 66.619 110.319 67.275 110.975 C 67.931 111.631 68.822 112 69.75 112 C 70.678 112 71.569 111.631 72.225 110.975 C 72.881 110.319 73.25 109.428 73.25 108.5"
        fill="#00000000"
        stroke="#df0000"
        stroke-width="1"/>
    <path
        id="path_5"
        d="M 9.73 21.12 C 8.54 19.62 7.74 18.24 7.74 18.24 C 7.74 18.24 6.95 19.62 5.75 21.12 C 4.55 22.62 3.23 23.75 3.23 23.75 C 3.23 23.75 4.55 24.88 5.75 26.38 C 6.95 27.88 7.74 29.26 7.74 29.26 C 7.74 29.26 8.53 27.88 9.73 26.38 C 10.93 24.88 12.25 23.75 12.25 23.75 C 12.25 23.75 10.93 22.62 9.73 21.12 Z"
        fill="#df0000"/>
    <path
        id="path_6"
        d="M 71.74 95.12 C 70.55 93.62 69.75 92.24 69.75 92.24 C 69.75 92.24 68.96 93.62 67.76 95.12 C 66.56 96.62 65.24 97.75 65.24 97.75 C 65.24 97.75 66.56 98.88 67.76 100.38 C 68.96 101.88 69.75 103.26 69.75 103.26 C 69.75 103.26 70.54 101.88 71.74 100.38 C 72.94 98.88 74.26 97.75 74.26 97.75 C 74.26 97.75 72.94 96.62 71.74 95.12 Z"
        fill="#df0000"/>
    <path
        id="path_7"
        d="M 26.28 15.74 C 24.16 12.88 22.75 10.25 22.75 10.25 C 22.75 10.25 21.34 12.88 19.22 15.74 C 17.1 18.6 14.75 20.75 14.75 20.75 C 14.75 20.75 17.1 22.9 19.22 25.76 C 21.34 28.62 22.75 31.25 22.75 31.25 C 22.75 31.25 24.16 28.62 26.28 25.76 C 28.4 22.9 30.75 20.75 30.75 20.75 C 30.75 20.75 28.4 18.6 26.28 15.74 Z"
        fill="#df0000"/>
    <path
        id="path_8"
        d="M 26.28 55.74 C 24.16 52.88 22.75 50.25 22.75 50.25 C 22.75 50.25 21.34 52.88 19.22 55.74 C 17.1 58.6 14.75 60.75 14.75 60.75 C 14.75 60.75 17.1 62.9 19.22 65.76 C 21.34 68.62 22.75 71.25 22.75 71.25 C 22.75 71.25 24.16 68.62 26.28 65.76 C 28.4 62.9 30.75 60.75 30.75 60.75 C 30.75 60.75 28.4 58.6 26.28 55.74 Z"
        fill="#df0000"/>
    <path
        id="path_9"
        d="M 26.28 95.74 C 24.16 92.88 22.75 90.25 22.75 90.25 C 22.75 90.25 21.34 92.88 19.22 95.74 C 17.1 98.6 14.75 100.75 14.75 100.75 C 14.75 100.75 17.1 102.9 19.22 105.76 C 21.34 108.62 22.75 111.25 22.75 111.25 C 22.75 111.25 24.16 108.62 26.28 105.76 C 28.4 102.9 30.75 100.75 30.75 100.75 C 30.75 100.75 28.4 98.6 26.28 95.74 Z"
        fill="#df0000"/>
    <path
        id="path_10"
        d="M 42.28 35.74 C 40.16 32.88 38.75 30.25 38.75 30.25 C 38.75 30.25 37.34 32.88 35.22 35.74 C 33.1 38.6 30.75 40.75 30.75 40.75 C 30.75 40.75 33.1 42.9 35.22 45.76 C 37.34 48.62 38.75 51.25 38.75 51.25 C 38.75 51.25 40.16 48.62 42.28 45.76 C 44.4 42.9 46.75 40.75 46.75 40.75 C 46.75 40.75 44.4 38.6 42.28 35.74 Z"
        fill="#df0000"/>
    <path
        id="path_11"
        d="M 42.28 75.74 C 40.16 72.88 38.75 70.25 38.75 70.25 C 38.75 70.25 37.34 72.88 35.22 75.74 C 33.1 78.6 30.75 80.75 30.75 80.75 C 30.75 80.75 33.1 82.9 35.22 85.76 C 37.34 88.62 38.75 91.25 38.75 91.25 C 38.75 91.25 40.16 88.62 42.28 85.76 C 44.4 82.9 46.75 80.75 46.75 80.75 C 46.75 80.75 44.4 78.6 42.28 75.74 Z"
        fill="#df0000"/>
    <path
        id="path_27"
        d="M 58.28 15.74 C 56.16 12.88 54.75 10.25 54.75 10.25 C 54.75 10.25 53.34 12.88 51.22 15.74 C 49.1 18.6 46.75 20.75 46.75 20.75 C 46.75 20.75 49.1 22.9 51.22 25.76 C 53.34 28.62 54.75 31.25 54.75 31.25 C 54.75 31.25 56.16 28.62 58.28 25.76 C 60.4 22.9 62.75 20.75 62.75 20.75 C 62.75 20.75 60.4 18.6 58.28 15.74 Z"
        fill="#df0000"/>
    <path
        id="path_28"
        d="M 58.28 55.74 C 56.16 52.88 54.75 50.25 54.75 50.25 C 54.75 50.25 53.34 52.88 51.22 55.74 C 49.1 58.6 46.75 60.75 46.75 60.75 C 46.75 60.75 49.1 62.9 51.22 65.76 C 53.34 68.62 54.75 71.25 54.75 71.25 C 54.75 71.25 56.16 68.62 58.28 65.76 C 60.4 62.9 62.75 60.75 62.75 60.75 C 62.75 60.75 60.4 58.6 58.28 55.74 Z"
        fill="#df0000"/>
    <path
        id="path_29"
        d="M 58.28 95.74 C 56.16 92.88 54.75 90.25 54.75 90.25 C 54.75 90.25 53.34 92.88 51.22 95.74 C 49.1 98.6 46.75 100.75 46.75 100.75 C 46.75 100.75 49.1 102.9 51.22 105.76 C 53.34 108.62 54.75 111.25 54.75 111.25 C 54.75 111.25 56.16 108.62 58.28 105.76 C 60.4 102.9 62.75 100.75 62.75 100.75 C 62.75 100.75 60.4 98.6 58.28 95.74 Z"
        fill="#df0000"/>
</svg>
