<svg
    xmlns="http://www.w3.org/2000/svg"
    viewBox="0 0 77 121"
    id="vector">
    <path
        id="path_16"
        d="M 77.5 116.5 C 77.5 119.26 75.26 121.5 72.5 121.5 L 5 121.5 C 2.24 121.5 0 119.26 0 116.5 L 0 5 C 0 2.24 2.24 0 5 0 L 72.5 0 C 75.26 0 77.5 2.24 77.5 5 L 77.5 116.5 Z"
        fill="none"
        stroke="#000000"
        stroke-width="1.5"/>
    <path
        id="path_17"
        d="M 11 7.75 L 11 13.25 C 11 13.25 11.25 16.5 7.77 16.5 C 6.69 16.5 4.97 16 4.75 14.25"
        fill="#00000000"
        stroke="#000000"
        stroke-width="1"/>
    <path
        id="path_18"
        d="M 11 7.75 C 11 6.888 10.657 6.061 10.048 5.452 C 9.439 4.843 8.612 4.5 7.75 4.5 C 6.888 4.5 6.061 4.843 5.452 5.452 C 4.843 6.061 4.5 6.888 4.5 7.75 C 4.5 8.612 4.843 9.439 5.452 10.048 C 6.061 10.657 6.888 11 7.75 11 C 8.612 11 9.439 10.657 10.048 10.048 C 10.657 9.439 11 8.612 11 7.75"
        fill="#00000000"
        stroke="#000000"
        stroke-width="1"/>
    <path
        id="path_19"
        d="M 73 113.75 C 73 112.888 72.657 112.061 72.048 111.452 C 71.439 110.843 70.612 110.5 69.75 110.5 C 68.888 110.5 68.061 110.843 67.452 111.452 C 66.843 112.061 66.5 112.888 66.5 113.75 C 66.5 114.612 66.843 115.439 67.452 116.048 C 68.061 116.657 68.888 117 69.75 117 C 70.612 117 71.439 116.657 72.048 116.048 C 72.657 115.439 73 114.612 73 113.75"
        fill="#00000000"
        stroke="#000000"
        stroke-width="1"/>
    <path
        id="path_20"
        d="M 66.5 113.75 L 66.5 108.25 C 66.5 108.25 66.25 105 69.73 105 C 70.81 105 72.53 105.5 72.75 107.25"
        fill="#00000000"
        stroke="#000000"
        stroke-width="1"/>
    <path
        id="path_21"
        d="M 12.24 25.37 C 12.1 23.24 7.88 19.24 7.75 18.24 C 7.61 19.24 3.39 23.24 3.26 25.37 C 3.17 26.87 4.21 27.5 5.17 27.5 C 6.53 27.5 6.94 26.12 7.08 25.75 C 7.08 25.62 7.35 25.62 7.35 25.75 C 7.49 26.13 6.45 29.25 6.12 29.25 L 9.39 29.25 C 9.07 29.25 8.03 26.12 8.16 25.75 C 8.16 25.62 8.43 25.62 8.43 25.75 C 8.57 26.13 8.97 27.5 10.34 27.5 C 11.29 27.5 12.34 26.88 12.25 25.37 Z"
        fill="#000000"/>
    <path
        id="path_22"
        d="M 65.26 96.12 C 65.4 98.25 69.62 102.25 69.75 103.25 C 69.89 102.25 74.11 98.25 74.24 96.12 C 74.33 94.62 73.29 93.99 72.33 93.99 C 70.97 93.99 70.56 95.37 70.42 95.74 C 70.42 95.87 70.15 95.87 70.15 95.74 C 70.01 95.36 71.05 92.24 71.38 92.24 L 68.11 92.24 C 68.43 92.24 69.47 95.37 69.34 95.74 C 69.34 95.87 69.07 95.87 69.07 95.74 C 68.93 95.36 68.53 93.99 67.16 93.99 C 66.21 93.99 65.16 94.61 65.25 96.12 Z"
        fill="#000000"/>
    <path
        id="path_23"
        d="M 30.74 23.85 C 30.5 19.79 22.99 12.16 22.75 10.25 C 22.51 12.16 15 19.8 14.76 23.85 C 14.59 26.72 16.46 27.91 18.15 27.91 C 20.57 27.91 21.3 25.28 21.54 24.57 C 21.54 24.33 22.02 24.33 22.02 24.57 C 22.26 25.29 20.42 31.25 19.84 31.25 L 25.65 31.25 C 25.07 31.25 23.23 25.28 23.47 24.57 C 23.47 24.33 23.96 24.33 23.96 24.57 C 24.2 25.29 24.93 27.91 27.35 27.91 C 29.04 27.91 30.91 26.72 30.74 23.85 Z"
        fill="#000000"/>
    <path
        id="path_24"
        d="M 30.74 50.6 C 30.5 46.54 22.99 38.91 22.75 37 C 22.51 38.91 15 46.55 14.76 50.6 C 14.59 53.47 16.46 54.66 18.15 54.66 C 20.57 54.66 21.3 52.03 21.54 51.32 C 21.54 51.08 22.02 51.08 22.02 51.32 C 22.26 52.04 20.42 58 19.84 58 L 25.65 58 C 25.07 58 23.23 52.03 23.47 51.32 C 23.47 51.08 23.96 51.08 23.96 51.32 C 24.2 52.04 24.93 54.66 27.35 54.66 C 29.04 54.66 30.91 53.47 30.74 50.6 Z"
        fill="#000000"/>
    <path
        id="path_25"
        d="M 14.76 70.9 C 15 74.96 22.51 82.59 22.75 84.5 C 22.99 82.59 30.5 74.95 30.74 70.9 C 30.91 68.03 29.04 66.84 27.35 66.84 C 24.93 66.84 24.2 69.47 23.96 70.18 C 23.96 70.42 23.48 70.42 23.48 70.18 C 23.24 69.46 25.08 63.5 25.66 63.5 L 19.85 63.5 C 20.43 63.5 22.27 69.47 22.03 70.18 C 22.03 70.42 21.54 70.42 21.54 70.18 C 21.3 69.46 20.57 66.84 18.15 66.84 C 16.46 66.84 14.59 68.03 14.76 70.9 Z"
        fill="#000000"/>
    <path
        id="path_26"
        d="M 14.76 97.65 C 15 101.71 22.51 109.34 22.75 111.25 C 22.99 109.34 30.5 101.7 30.74 97.65 C 30.91 94.78 29.04 93.59 27.35 93.59 C 24.93 93.59 24.2 96.22 23.96 96.93 C 23.96 97.17 23.48 97.17 23.48 96.93 C 23.24 96.21 25.08 90.25 25.66 90.25 L 19.85 90.25 C 20.43 90.25 22.27 96.22 22.03 96.93 C 22.03 97.17 21.54 97.17 21.54 96.93 C 21.3 96.21 20.57 93.59 18.15 93.59 C 16.46 93.59 14.59 94.78 14.76 97.65 Z"
        fill="#000000"/>
    <path
        id="path_27"
        d="M 46.74 63.85 C 46.5 59.79 38.99 52.16 38.75 50.25 C 38.51 52.16 31 59.8 30.76 63.85 C 30.59 66.72 32.46 67.91 34.15 67.91 C 36.57 67.91 37.3 65.28 37.54 64.57 C 37.54 64.33 38.02 64.33 38.02 64.57 C 38.26 65.29 36.42 71.25 35.84 71.25 L 41.65 71.25 C 41.07 71.25 39.23 65.28 39.47 64.57 C 39.47 64.33 39.96 64.33 39.96 64.57 C 40.2 65.29 40.93 67.91 43.35 67.91 C 45.04 67.91 46.91 66.72 46.74 63.85 Z"
        fill="#000000"/>
    <path
        id="path_28"
        d="M 62.74 23.85 C 62.5 19.79 54.99 12.16 54.75 10.25 C 54.51 12.16 47 19.8 46.76 23.85 C 46.59 26.72 48.46 27.91 50.15 27.91 C 52.57 27.91 53.3 25.28 53.54 24.57 C 53.54 24.33 54.02 24.33 54.02 24.57 C 54.26 25.29 52.42 31.25 51.84 31.25 L 57.65 31.25 C 57.07 31.25 55.23 25.28 55.47 24.57 C 55.47 24.33 55.96 24.33 55.96 24.57 C 56.2 25.29 56.93 27.91 59.35 27.91 C 61.04 27.91 62.91 26.72 62.74 23.85 Z"
        fill="#000000"/>
    <path
        id="path_29"
        d="M 62.74 50.6 C 62.5 46.54 54.99 38.91 54.75 37 C 54.51 38.91 47 46.55 46.76 50.6 C 46.59 53.47 48.46 54.66 50.15 54.66 C 52.57 54.66 53.3 52.03 53.54 51.32 C 53.54 51.08 54.02 51.08 54.02 51.32 C 54.26 52.04 52.42 58 51.84 58 L 57.65 58 C 57.07 58 55.23 52.03 55.47 51.32 C 55.47 51.08 55.96 51.08 55.96 51.32 C 56.2 52.04 56.93 54.66 59.35 54.66 C 61.04 54.66 62.91 53.47 62.74 50.6 Z"
        fill="#000000"/>
    <path
        id="path_30"
        d="M 46.76 70.9 C 47 74.96 54.51 82.59 54.75 84.5 C 54.99 82.59 62.5 74.95 62.74 70.9 C 62.91 68.03 61.04 66.84 59.35 66.84 C 56.93 66.84 56.2 69.47 55.96 70.18 C 55.96 70.42 55.48 70.42 55.48 70.18 C 55.24 69.46 57.08 63.5 57.66 63.5 L 51.85 63.5 C 52.43 63.5 54.27 69.47 54.03 70.18 C 54.03 70.42 53.54 70.42 53.54 70.18 C 53.3 69.46 52.57 66.84 50.15 66.84 C 48.46 66.84 46.59 68.03 46.76 70.9 Z"
        fill="#000000"/>
    <path
        id="path_31"
        d="M 46.76 97.65 C 47 101.71 54.51 109.34 54.75 111.25 C 54.99 109.34 62.5 101.7 62.74 97.65 C 62.91 94.78 61.04 93.59 59.35 93.59 C 56.93 93.59 56.2 96.22 55.96 96.93 C 55.96 97.17 55.48 97.17 55.48 96.93 C 55.24 96.21 57.08 90.25 57.66 90.25 L 51.85 90.25 C 52.43 90.25 54.27 96.22 54.03 96.93 C 54.03 97.17 53.54 97.17 53.54 96.93 C 53.3 96.21 52.57 93.59 50.15 93.59 C 48.46 93.59 46.59 94.78 46.76 97.65 Z"
        fill="#000000"/>
</svg>
