<svg
    xmlns="http://www.w3.org/2000/svg"
    viewBox="0 0 77 121"
    id="vector">
    <path
        id="path"
        d="M 77.5 116.5 C 77.5 119.26 75.26 121.5 72.5 121.5 L 5 121.5 C 2.24 121.5 0 119.26 0 116.5 L 0 5 C 0 2.24 2.24 0 5 0 L 72.5 0 C 75.26 0 77.5 2.24 77.5 5 L 77.5 116.5 Z"
        fill="none"
        stroke="#000000"
        stroke-width="1.5"/>
    <path
        id="path_1"
        d="M 11.5 4 L 4.5 4 L 4.5 9.25 L 5.2 9.5 C 5.2 9.5 5.67 8 8 8 C 10.33 8 11.27 10.25 11.27 12.5 C 11.27 14.75 9.87 16.5 7.77 16.5 C 5.67 16.5 4.74 15 4.5 14.25"
        fill="#00000000"
        stroke="#000000"
        stroke-width="1"/>
    <path
        id="path_2"
        d="M 66 117.5 L 73 117.5 L 73 112.25 L 72.3 112 C 72.3 112 71.83 113.5 69.5 113.5 C 67.17 113.5 66.23 111.25 66.23 109 C 66.23 106.75 67.63 105 69.73 105 C 71.83 105 72.76 106.5 73 107.25"
        fill="#00000000"
        stroke="#000000"
        stroke-width="1"/>
    <path
        id="path_3"
        d="M 8.89 23.29 C 8.89 23.29 10.14 22.29 10.14 20.9 C 10.14 20.09 9.42 18.74 7.75 18.74 C 6.08 18.74 5.36 20.09 5.36 20.9 C 5.36 22.29 6.61 23.29 6.61 23.29 C 5.22 22.21 2.75 22.95 2.75 25.11 C 2.75 26.19 3.63 27.38 5.02 27.38 C 6.69 27.38 7.41 25.56 7.41 25.56 C 7.41 25.56 7.62 27.63 6.39 28.74 L 9.12 28.74 C 7.89 27.63 8.1 25.56 8.1 25.56 C 8.1 25.56 8.82 27.38 10.49 27.38 C 11.88 27.38 12.76 26.19 12.76 25.11 C 12.76 22.95 10.28 22.21 8.9 23.29 Z"
        fill="#000000"/>
    <path
        id="path_4"
        d="M 68.61 98.2 C 68.61 98.2 67.36 99.2 67.36 100.59 C 67.36 101.4 68.08 102.75 69.75 102.75 C 71.42 102.75 72.14 101.4 72.14 100.59 C 72.14 99.2 70.89 98.2 70.89 98.2 C 72.28 99.28 74.75 98.54 74.75 96.38 C 74.75 95.3 73.87 94.11 72.48 94.11 C 70.81 94.11 70.09 95.93 70.09 95.93 C 70.09 95.93 69.88 93.86 71.11 92.75 L 68.38 92.75 C 69.61 93.86 69.4 95.93 69.4 95.93 C 69.4 95.93 68.68 94.11 67.01 94.11 C 65.62 94.11 64.74 95.3 64.74 96.38 C 64.74 98.54 67.22 99.28 68.6 98.2 Z"
        fill="#000000"/>
    <path
        id="path_5"
        d="M 24.91 19.89 C 24.91 19.89 27.29 17.99 27.29 15.36 C 27.29 13.82 25.92 11.26 22.76 11.26 C 19.6 11.26 18.23 13.82 18.23 15.36 C 18.23 17.99 20.61 19.89 20.61 19.89 C 17.97 17.83 13.27 19.24 13.27 23.34 C 13.27 25.4 14.95 27.66 17.59 27.66 C 20.75 27.66 22.12 24.21 22.12 24.21 C 22.12 24.21 22.52 28.15 20.18 30.26 L 25.36 30.26 C 23.01 28.15 23.42 24.21 23.42 24.21 C 23.42 24.21 24.79 27.66 27.95 27.66 C 30.59 27.66 32.27 25.4 32.27 23.34 C 32.27 19.23 27.57 17.83 24.93 19.89 Z"
        fill="#000000"/>
    <path
        id="path_6"
        d="M 20.59 101.61 C 20.59 101.61 18.21 103.51 18.21 106.14 C 18.21 107.68 19.58 110.24 22.74 110.24 C 25.9 110.24 27.27 107.68 27.27 106.14 C 27.27 103.51 24.89 101.61 24.89 101.61 C 27.53 103.67 32.23 102.26 32.23 98.16 C 32.23 96.1 30.55 93.84 27.91 93.84 C 24.75 93.84 23.38 97.29 23.38 97.29 C 23.38 97.29 22.98 93.35 25.32 91.24 L 20.14 91.24 C 22.49 93.35 22.08 97.29 22.08 97.29 C 22.08 97.29 20.71 93.84 17.55 93.84 C 14.91 93.84 13.23 96.1 13.23 98.16 C 13.23 102.27 17.93 103.67 20.57 101.61 Z"
        fill="#000000"/>
    <path
        id="path_7"
        d="M 40.91 59.89 C 40.91 59.89 43.29 57.99 43.29 55.36 C 43.29 53.82 41.92 51.26 38.76 51.26 C 35.6 51.26 34.23 53.82 34.23 55.36 C 34.23 57.99 36.61 59.89 36.61 59.89 C 33.97 57.83 29.27 59.24 29.27 63.34 C 29.27 65.4 30.95 67.66 33.59 67.66 C 36.75 67.66 38.12 64.21 38.12 64.21 C 38.12 64.21 38.52 68.15 36.18 70.26 L 41.36 70.26 C 39.01 68.15 39.42 64.21 39.42 64.21 C 39.42 64.21 40.79 67.66 43.95 67.66 C 46.59 67.66 48.27 65.4 48.27 63.34 C 48.27 59.23 43.57 57.83 40.93 59.89 Z"
        fill="#000000"/>
    <path
        id="path_8"
        d="M 56.91 19.89 C 56.91 19.89 59.29 17.99 59.29 15.36 C 59.29 13.82 57.92 11.26 54.76 11.26 C 51.6 11.26 50.23 13.82 50.23 15.36 C 50.23 17.99 52.61 19.89 52.61 19.89 C 49.97 17.83 45.27 19.24 45.27 23.34 C 45.27 25.4 46.95 27.66 49.59 27.66 C 52.75 27.66 54.12 24.21 54.12 24.21 C 54.12 24.21 54.52 28.15 52.18 30.26 L 57.36 30.26 C 55.01 28.15 55.42 24.21 55.42 24.21 C 55.42 24.21 56.79 27.66 59.95 27.66 C 62.59 27.66 64.27 25.4 64.27 23.34 C 64.27 19.23 59.57 17.83 56.93 19.89 Z"
        fill="#000000"/>
    <path
        id="path_9"
        d="M 52.59 101.61 C 52.59 101.61 50.21 103.51 50.21 106.14 C 50.21 107.68 51.58 110.24 54.74 110.24 C 57.9 110.24 59.27 107.68 59.27 106.14 C 59.27 103.51 56.89 101.61 56.89 101.61 C 59.53 103.67 64.23 102.26 64.23 98.16 C 64.23 96.1 62.55 93.84 59.91 93.84 C 56.75 93.84 55.38 97.29 55.38 97.29 C 55.38 97.29 54.98 93.35 57.32 91.24 L 52.14 91.24 C 54.49 93.35 54.08 97.29 54.08 97.29 C 54.08 97.29 52.71 93.84 49.55 93.84 C 46.91 93.84 45.23 96.1 45.23 98.16 C 45.23 102.27 49.93 103.67 52.57 101.61 Z"
        fill="#000000"/>
</svg>
