<svg
    xmlns="http://www.w3.org/2000/svg"
    viewBox="0 0 77 121"
    id="vector">
    <path
        id="path_12"
        d="M 77.5 116.5 C 77.5 119.26 75.26 121.5 72.5 121.5 L 5 121.5 C 2.24 121.5 0 119.26 0 116.5 L 0 5 C 0 2.24 2.24 0 5 0 L 72.5 0 C 75.26 0 77.5 2.24 77.5 5 L 77.5 116.5 Z"
        fill="none"
        stroke="#000000"
        stroke-width="1.5"/>
    <path
        id="path_13"
        d="M 11.5 14.35 C 11.5 15.54 10.49 16.5 9.25 16.5 C 8.01 16.5 7 15.54 7 14.35 L 7 6.15 C 7 4.96 8.01 4 9.25 4 C 10.49 4 11.5 4.96 11.5 6.15 L 11.5 14.35 Z"
        fill="#00000000"
        stroke="#df0000"
        stroke-width="1"/>
    <path
        id="path_14"
        d="M 4 3.5 L 4 17"
        fill="#00000000"
        stroke="#df0000"
        stroke-width="1"/>
    <path
        id="path_15"
        d="M 73.5 118 L 73.5 104.5"
        fill="#00000000"
        stroke="#df0000"
        stroke-width="1"/>
    <path
        id="path_16"
        d="M 66 107.15 C 66 105.96 67.01 105 68.25 105 C 69.49 105 70.5 105.96 70.5 107.15 L 70.5 115.35 C 70.5 116.54 69.49 117.5 68.25 117.5 C 67.01 117.5 66 116.54 66 115.35 L 66 107.15 Z"
        fill="#00000000"
        stroke="#df0000"
        stroke-width="1"/>
    <path
        id="path_17"
        d="M 9.73 21.12 C 8.54 19.62 7.74 18.24 7.74 18.24 C 7.74 18.24 6.95 19.62 5.75 21.12 C 4.55 22.62 3.23 23.75 3.23 23.75 C 3.23 23.75 4.55 24.88 5.75 26.38 C 6.95 27.88 7.74 29.26 7.74 29.26 C 7.74 29.26 8.53 27.88 9.73 26.38 C 10.93 24.88 12.25 23.75 12.25 23.75 C 12.25 23.75 10.93 22.62 9.73 21.12 Z"
        fill="#df0000"/>
    <path
        id="path_18"
        d="M 71.74 95.12 C 70.55 93.62 69.75 92.24 69.75 92.24 C 69.75 92.24 68.96 93.62 67.76 95.12 C 66.56 96.62 65.24 97.75 65.24 97.75 C 65.24 97.75 66.56 98.88 67.76 100.38 C 68.96 101.88 69.75 103.26 69.75 103.26 C 69.75 103.26 70.54 101.88 71.74 100.38 C 72.94 98.88 74.26 97.75 74.26 97.75 C 74.26 97.75 72.94 96.62 71.74 95.12 Z"
        fill="#df0000"/>
    <path
        id="path_19"
        d="M 26.28 15.74 C 24.16 12.88 22.75 10.25 22.75 10.25 C 22.75 10.25 21.34 12.88 19.22 15.74 C 17.1 18.6 14.75 20.75 14.75 20.75 C 14.75 20.75 17.1 22.9 19.22 25.76 C 21.34 28.62 22.75 31.25 22.75 31.25 C 22.75 31.25 24.16 28.62 26.28 25.76 C 28.4 22.9 30.75 20.75 30.75 20.75 C 30.75 20.75 28.4 18.6 26.28 15.74 Z"
        fill="#df0000"/>
    <path
        id="path_20"
        d="M 26.28 42.49 C 24.16 39.63 22.75 37 22.75 37 C 22.75 37 21.34 39.63 19.22 42.49 C 17.1 45.35 14.75 47.5 14.75 47.5 C 14.75 47.5 17.1 49.65 19.22 52.51 C 21.34 55.37 22.75 58 22.75 58 C 22.75 58 24.16 55.37 26.28 52.51 C 28.4 49.65 30.75 47.5 30.75 47.5 C 30.75 47.5 28.4 45.35 26.28 42.49 Z"
        fill="#df0000"/>
    <path
        id="path_21"
        d="M 26.28 68.99 C 24.16 66.13 22.75 63.5 22.75 63.5 C 22.75 63.5 21.34 66.13 19.22 68.99 C 17.1 71.85 14.75 74 14.75 74 C 14.75 74 17.1 76.15 19.22 79.01 C 21.34 81.87 22.75 84.5 22.75 84.5 C 22.75 84.5 24.16 81.87 26.28 79.01 C 28.4 76.15 30.75 74 30.75 74 C 30.75 74 28.4 71.85 26.28 68.99 Z"
        fill="#df0000"/>
    <path
        id="path_22"
        d="M 26.28 95.74 C 24.16 92.88 22.75 90.25 22.75 90.25 C 22.75 90.25 21.34 92.88 19.22 95.74 C 17.1 98.6 14.75 100.75 14.75 100.75 C 14.75 100.75 17.1 102.9 19.22 105.76 C 21.34 108.62 22.75 111.25 22.75 111.25 C 22.75 111.25 24.16 108.62 26.28 105.76 C 28.4 102.9 30.75 100.75 30.75 100.75 C 30.75 100.75 28.4 98.6 26.28 95.74 Z"
        fill="#df0000"/>
    <path
        id="path_23"
        d="M 42.28 29.12 C 40.16 26.26 38.75 23.63 38.75 23.63 C 38.75 23.63 37.34 26.26 35.22 29.12 C 33.1 31.98 30.75 34.13 30.75 34.13 C 30.75 34.13 33.1 36.28 35.22 39.14 C 37.34 42 38.75 44.63 38.75 44.63 C 38.75 44.63 40.16 42 42.28 39.14 C 44.4 36.28 46.75 34.13 46.75 34.13 C 46.75 34.13 44.4 31.98 42.28 29.12 Z"
        fill="#df0000"/>
    <path
        id="path_25"
        d="M 42.28 82.36 C 40.16 79.5 38.75 76.87 38.75 76.87 C 38.75 76.87 37.34 79.5 35.22 82.36 C 33.1 85.22 30.75 87.37 30.75 87.37 C 30.75 87.37 33.1 89.52 35.22 92.38 C 37.34 95.24 38.75 97.87 38.75 97.87 C 38.75 97.87 40.16 95.24 42.28 92.38 C 44.4 89.52 46.75 87.37 46.75 87.37 C 46.75 87.37 44.4 85.22 42.28 82.36 Z"
        fill="#df0000"/>
    <path
        id="path_30"
        d="M 58.28 15.74 C 56.16 12.88 54.75 10.25 54.75 10.25 C 54.75 10.25 53.34 12.88 51.22 15.74 C 49.1 18.6 46.75 20.75 46.75 20.75 C 46.75 20.75 49.1 22.9 51.22 25.76 C 53.34 28.62 54.75 31.25 54.75 31.25 C 54.75 31.25 56.16 28.62 58.28 25.76 C 60.4 22.9 62.75 20.75 62.75 20.75 C 62.75 20.75 60.4 18.6 58.28 15.74 Z"
        fill="#df0000"/>
    <path
        id="path_31"
        d="M 58.28 42.49 C 56.16 39.63 54.75 37 54.75 37 C 54.75 37 53.34 39.63 51.22 42.49 C 49.1 45.35 46.75 47.5 46.75 47.5 C 46.75 47.5 49.1 49.65 51.22 52.51 C 53.34 55.37 54.75 58 54.75 58 C 54.75 58 56.16 55.37 58.28 52.51 C 60.4 49.65 62.75 47.5 62.75 47.5 C 62.75 47.5 60.4 45.35 58.28 42.49 Z"
        fill="#df0000"/>
    <path
        id="path_32"
        d="M 58.28 68.99 C 56.16 66.13 54.75 63.5 54.75 63.5 C 54.75 63.5 53.34 66.13 51.22 68.99 C 49.1 71.85 46.75 74 46.75 74 C 46.75 74 49.1 76.15 51.22 79.01 C 53.34 81.87 54.75 84.5 54.75 84.5 C 54.75 84.5 56.16 81.87 58.28 79.01 C 60.4 76.15 62.75 74 62.75 74 C 62.75 74 60.4 71.85 58.28 68.99 Z"
        fill="#df0000"/>
    <path
        id="path_33"
        d="M 58.28 95.74 C 56.16 92.88 54.75 90.25 54.75 90.25 C 54.75 90.25 53.34 92.88 51.22 95.74 C 49.1 98.6 46.75 100.75 46.75 100.75 C 46.75 100.75 49.1 102.9 51.22 105.76 C 53.34 108.62 54.75 111.25 54.75 111.25 C 54.75 111.25 56.16 108.62 58.28 105.76 C 60.4 102.9 62.75 100.75 62.75 100.75 C 62.75 100.75 60.4 98.6 58.28 95.74 Z"
        fill="#df0000"/>
</svg>
