<svg
    xmlns="http://www.w3.org/2000/svg"
    viewBox="0 0 77 121"
    id="vector">
    <path
        id="path_12"
        d="M 77.5 116.5 C 77.5 119.26 75.26 121.5 72.5 121.5 L 5 121.5 C 2.24 121.5 0 119.26 0 116.5 L 0 5 C 0 2.24 2.24 0 5 0 L 72.5 0 C 75.26 0 77.5 2.24 77.5 5 L 77.5 116.5 Z"
        fill="none"
        stroke="#000000"
        stroke-width="1.5"/>
    <path
        id="path_13"
        d="M 3.25 16.5 L 6.75 16.5"
        fill="#00000000"
        stroke="#df0000"
        stroke-width="1"/>
    <path
        id="path_14"
        d="M 12.25 16.5 L 8.75 16.5"
        fill="#00000000"
        stroke="#df0000"
        stroke-width="1"/>
    <path
        id="path_15"
        d="M 4.75 16.5 L 7.75 3.25 L 10.75 16.5"
        fill="#00000000"
        stroke="#df0000"
        stroke-width="1"/>
    <path
        id="path_16"
        d="M 5.5 13.25 L 10 13.25"
        fill="#00000000"
        stroke="#df0000"
        stroke-width="1"/>
    <path
        id="path_17"
        d="M 72 108.25 L 67.5 108.25"
        fill="#00000000"
        stroke="#df0000"
        stroke-width="1"/>
    <path
        id="path_18"
        d="M 74.25 105 L 70.75 105"
        fill="#00000000"
        stroke="#df0000"
        stroke-width="1"/>
    <path
        id="path_19"
        d="M 65.25 105 L 68.75 105"
        fill="#00000000"
        stroke="#df0000"
        stroke-width="1"/>
    <path
        id="path_20"
        d="M 72.75 105 L 69.75 118.25 L 66.75 105"
        fill="#00000000"
        stroke="#df0000"
        stroke-width="1"/>
    <path
        id="path_21"
        d="M 9.82 18.75 C 7.99 18.75 7.75 20.68 7.75 20.68 C 7.75 20.68 7.51 18.75 5.68 18.75 C 4.41 18.75 3.25 19.62 3.25 21.25 C 3.25 23.41 7.29 27.19 7.75 28.75 C 8.21 27.19 12.25 23.41 12.25 21.25 C 12.25 19.62 11.1 18.75 9.82 18.75 Z"
        fill="#df0000"/>
    <path
        id="path_22"
        d="M 67.68 102.75 C 69.51 102.75 69.75 100.82 69.75 100.82 C 69.75 100.82 69.99 102.75 71.82 102.75 C 73.09 102.75 74.25 101.88 74.25 100.25 C 74.25 98.09 70.21 94.31 69.75 92.75 C 69.29 94.31 65.25 98.09 65.25 100.25 C 65.25 101.88 66.41 102.75 67.68 102.75 Z"
        fill="#df0000"/>
    <path
        id="path_23"
        d="M 42.43 51.75 C 39.18 51.75 38.75 55.23 38.75 55.23 C 38.75 55.23 38.32 51.75 35.07 51.75 C 32.8 51.75 30.75 53.31 30.75 56.25 C 30.75 60.14 37.94 66.94 38.75 69.75 C 39.56 66.94 46.75 60.14 46.75 56.25 C 46.75 53.31 44.7 51.75 42.43 51.75 Z"
        fill="#df0000"/>
</svg>
